<?xml version="1.0" encoding="UTF-8" standalone="no"?>
<!-- Created with Inkscape (http://www.inkscape.org/) -->

<svg
   xmlns:dc="http://purl.org/dc/elements/1.1/"
   xmlns:cc="http://creativecommons.org/ns#"
   xmlns:rdf="http://www.w3.org/1999/02/22-rdf-syntax-ns#"
   xmlns:svg="http://www.w3.org/2000/svg"
   xmlns="http://www.w3.org/2000/svg"
   xmlns:sodipodi="http://sodipodi.sourceforge.net/DTD/sodipodi-0.dtd"
   xmlns:inkscape="http://www.inkscape.org/namespaces/inkscape"
   width="150mm"
   height="150mm"
   viewBox="0 0 150 150"
   version="1.1"
   id="svg8"
   inkscape:version="0.92.4 (5da689c313, 2019-01-14)"
   sodipodi:docname="IconManuf.svg">
  <defs
     id="defs2">
    <marker
       style="overflow:visible"
       refY="0"
       refX="0"
       orient="auto"
       id="DistanceX">
      <path
         id="path4546"
         style="stroke:#000000;stroke-width:0.5"
         d="M 3,-3 -3,3 M 0,-5 V 5"
         inkscape:connector-curvature="0" />
    </marker>
    <pattern
       y="0"
       x="0"
       width="8"
       patternUnits="userSpaceOnUse"
       id="Hatch"
       height="8">
      <path
         id="path4549"
         stroke-width="0.25"
         stroke="#000000"
         linecap="square"
         d="M8 4 l-4,4" />
      <path
         id="path4551"
         stroke-width="0.25"
         stroke="#000000"
         linecap="square"
         d="M6 2 l-4,4" />
      <path
         id="path4553"
         stroke-width="0.25"
         stroke="#000000"
         linecap="square"
         d="M4 0 l-4,4" />
    </pattern>
    <symbol
       id="*Model_Space" />
    <symbol
       id="*Paper_Space" />
    <symbol
       id="*Paper_Space0" />
    <marker
       id="DistanceX-0"
       orient="auto"
       refX="0"
       refY="0"
       style="overflow:visible">
      <path
         d="M 3,-3 -3,3 M 0,-5 V 5"
         style="stroke:#000000;stroke-width:0.5"
         id="path4546-0"
         inkscape:connector-curvature="0" />
    </marker>
    <pattern
       height="8"
       id="Hatch-8"
       patternUnits="userSpaceOnUse"
       width="8"
       x="0"
       y="0">
      <path
         d="M8 4 l-4,4"
         linecap="square"
         stroke="#000000"
         stroke-width="0.25"
         id="path4549-6" />
      <path
         d="M6 2 l-4,4"
         linecap="square"
         stroke="#000000"
         stroke-width="0.25"
         id="path4551-0" />
      <path
         d="M4 0 l-4,4"
         linecap="square"
         stroke="#000000"
         stroke-width="0.25"
         id="path4553-4" />
    </pattern>
    <symbol
       id="*Model_Space-4" />
    <symbol
       id="*Paper_Space-0" />
    <symbol
       id="*Paper_Space0-9" />
  </defs>
  <sodipodi:namedview
     id="base"
     pagecolor="#ffffff"
     bordercolor="#666666"
     borderopacity="1.0"
     inkscape:pageopacity="0.0"
     inkscape:pageshadow="2"
     inkscape:zoom="1.4"
     inkscape:cx="349.32328"
     inkscape:cy="236.16488"
     inkscape:document-units="mm"
     inkscape:current-layer="layer1"
     showgrid="false"
     inkscape:window-width="2010"
     inkscape:window-height="1321"
     inkscape:window-x="863"
     inkscape:window-y="440"
     inkscape:window-maximized="0" />
  <metadata
     id="metadata5">
    <rdf:RDF>
      <cc:Work
         rdf:about="">
        <dc:format>image/svg+xml</dc:format>
        <dc:type
           rdf:resource="http://purl.org/dc/dcmitype/StillImage" />
        <dc:title></dc:title>
      </cc:Work>
    </rdf:RDF>
  </metadata>
  <g
     inkscape:label="Layer 1"
     inkscape:groupmode="layer"
     id="layer1"
     transform="translate(0,-147)">
    <path
       style="fill:#008000;stroke-width:0.1388889"
       d="M 0,222 V 147 H 75.000008 150 v 75 75 H 75.000008 0 Z m 109.27778,54.55556 c 0.21638,-0.2164 0.21638,-1.6725 0,-1.88889 C 109.15097,274.53981 106.4513,274.5 97.975334,274.5 c -12.304362,0 -11.63745,0.0501 -11.32326,-0.85116 0.742388,-2.12963 -0.136483,-3.48075 -2.758825,-4.24092 -0.6469,-0.18753 -1.256283,-0.40743 -1.354167,-0.48867 -0.186614,-0.15487 -0.268897,-4.57624 -0.09367,-5.03289 0.160433,-0.41817 1.318012,-0.10489 1.999032,0.54103 0.974721,0.92445 4.243766,2.42408 6.18056,2.83524 0.458334,0.0973 1.095374,0.23426 1.415666,0.30436 1.308022,0.28628 3.14977,0.14659 5.348835,-0.40567 0.862385,-0.21658 2.225197,-0.92204 2.955165,-1.52975 0.38055,-0.31681 0.73632,-0.57601 0.79062,-0.57601 0.197,0 2.1405,-2.58895 2.50231,-3.33334 1.90994,-3.92947 2.14731,-8.48551 0.79598,-15.27778 -0.0837,-0.42013 -0.26797,-1.32638 -0.40976,-2.01388 -0.81901,-3.97114 -0.90249,-4.42726 -1.18195,-6.45834 -0.12795,-0.92946 -0.20108,-2.65173 -0.20182,-4.74907 -0.001,-3.64834 -0.0212,-3.72315 -0.98727,-3.72315 -0.98673,0 -1.27549,6.10465 -0.45989,9.72222 0.11187,0.49653 0.25874,1.30903 0.32621,1.80556 0.14616,1.07517 0.50855,2.96591 0.77211,4.02778 0.2666,1.07407 0.54669,2.66593 0.97026,5.51455 1.75456,11.7997 -5.504445,18.38813 -15.282233,13.87051 -2.144504,-0.99082 -4.667158,-2.99782 -5.057053,-4.02335 -0.135991,-0.35751 0.04577,-10.93317 0.194964,-11.34324 0.03986,-0.10946 0.167323,-2.43953 0.283382,-5.17792 0.116142,-2.7384 0.241979,-5.02899 0.279807,-5.09021 0.03789,-0.0612 0.132381,-1.63322 0.210269,-3.49333 0.07776,-1.86011 0.230019,-4.47576 0.338271,-5.81257 0.108267,-1.33681 0.235318,-4.11806 0.282365,-6.18056 0.174574,-7.65282 0.50187,-10.18868 0.833547,-6.45833 0.257349,2.89449 -0.507907,2.63889 7.900934,2.63889 8.183777,0 9.855577,0.77833 7.255827,3.37808 l -0.47066,0.47066 -0.0976,1.99924 c -0.171523,3.51189 -0.208973,3.45223 2.16942,3.45553 2.0426,0.003 2.06094,-0.0144 2.20776,-2.08824 0.062,-0.87465 0.15535,-1.84757 0.20753,-2.16204 0.0956,-0.57596 -0.0433,-1.01506 -0.4498,-1.42158 -0.15158,-0.15159 -0.17467,-0.48323 -0.10647,-1.53064 0.11582,-1.77927 0.22481,-2.03256 1.00214,-2.32943 1.15292,-0.4403 1.26899,-0.76933 1.56074,-4.42436 0.27772,-3.47933 0.22699,-3.7298 -0.90169,-4.4518 l -0.77337,-0.49472 0.0937,-1.41563 c 0.13075,-1.97513 0.37738,-3.06688 0.80855,-3.5793 0.27735,-0.32962 0.35937,-0.57926 0.35937,-1.09387 0,-0.9432 0.26742,-1.14008 0.9865,-0.72624 0.48738,0.28051 0.57762,0.292 0.92268,0.1175 0.21037,-0.10638 0.88248,-0.2275 1.49359,-0.26916 2.19759,-0.14982 2.09808,-0.72798 -0.19455,-1.13031 -0.25978,-0.0456 -0.74636,-0.21975 -1.08127,-0.38702 -0.59677,-0.29803 -0.61754,-0.29904 -1.03885,-0.0502 -0.37685,0.22262 -0.58622,0.23957 -1.6965,0.13737 -3.39118,-0.31213 -3.42574,-0.29636 -3.67684,1.67669 -0.13763,1.08183 -0.13172,1.12512 0.22326,1.6427 l 0.36465,0.53158 -0.17528,1.96842 c -0.20261,2.27501 -0.31671,2.59827 -0.9885,2.80039 -0.26737,0.0804 -0.70487,0.28534 -0.97223,0.45534 -0.763693,0.4856 -1.257164,0.51296 -4.51389,0.2503 -1.680544,-0.13555 -3.849573,-0.28696 -4.820029,-0.33648 -1.072949,-0.0547 -1.829609,-0.15538 -1.930643,-0.25678 -0.203625,-0.20436 -0.715928,-1.03169 -1.100754,-1.77769 -0.268684,-0.52084 -0.998015,-1.91365 -2.545489,-4.86112 -0.360958,-0.6875 -0.908448,-1.53125 -1.216666,-1.875 l -0.560384,-0.625 0.07972,0.88572 c 0.0438,0.48715 0.137304,1.11215 0.207579,1.38889 0.44749,1.76166 0.579971,5.40111 0.210056,5.77103 -0.192438,0.19244 -1.026247,0.21851 -7.048621,0.22038 -7.885711,0.002 -7.139238,-0.17261 -7.473113,1.75263 -0.329232,1.8985 -0.491453,2.83917 -0.651329,3.77679 -0.172227,1.01017 -0.358349,1.15484 -1.64726,1.28034 -2.930676,0.28538 -4.143717,0.66728 -4.286679,1.34959 -0.0438,0.20911 -0.134351,0.63019 -0.201329,0.93575 -0.06693,0.30555 -0.08465,3.14637 -0.03953,6.31293 0.09219,6.46796 -0.02822,5.76637 1.142634,6.65225 1.088812,0.82377 1.113894,3.49315 0.03281,3.49315 -0.667356,0 -0.998229,-0.34998 -0.998229,-1.05585 0,-0.67668 -0.445292,-1.30233 -0.931184,-1.30835 -0.137139,-0.002 -0.405626,-0.1231 -0.596604,-0.26977 l -0.347211,-0.26669 -0.03855,-6.96083 c -0.03248,-5.87199 -0.0049,-7.13875 0.180069,-8.09828 0.120242,-0.6256 0.309334,-1.6687 0.420292,-2.31801 0.181594,-1.06268 0.958546,-5.28854 1.118044,-6.08111 0.08825,-0.43872 0.62646,-0.66153 1.199048,-0.49642 0.57441,0.16563 0.604265,0.91871 0.135007,3.40698 -0.524262,2.78025 -0.491798,2.85323 1.191371,2.6779 1.541929,-0.16061 1.475476,-0.0483 2.051099,-3.46568 0.676099,-4.0139 0.464124,-3.67985 2.336909,-3.68268 1.682185,-0.003 1.807743,-0.0618 1.77733,-0.83797 -0.05807,-1.48433 -1.51647,-5.37622 -2.419964,-6.45833 -0.188222,-0.22545 -0.452576,-0.62499 -0.587418,-0.88786 -0.316978,-0.61794 -3.068914,-3.37129 -3.690945,-3.69286 -0.262877,-0.1359 -0.696702,-0.41834 -0.964074,-0.62764 -1.105053,-0.86509 -1.916732,-0.82569 -3.263878,0.15842 -0.305561,0.22321 -0.836811,0.61121 -1.180561,0.86224 -1.129215,0.82459 -2.691174,3.42171 -3.38978,5.63634 -0.894586,2.8358 -1.190567,4.82674 -1.664632,11.19701 -0.125,1.68055 -0.303888,3.6493 -0.397375,4.375 -0.192323,1.49284 -0.185286,3.06073 0.02461,5.48611 0.141568,1.63574 0.490338,9.47266 0.494505,11.11111 l 0.0016,0.83333 -1.044504,0.5012 c -3.024852,1.45144 -3.690075,4.23859 -2.142897,8.97825 0.187106,0.57317 0.34019,1.17066 0.34019,1.32777 0,0.1571 0.13107,0.571 0.291142,0.91977 0.764025,1.66408 1.178248,2.71053 1.927805,4.87023 0.09285,0.26736 0.253149,0.82986 0.356332,1.25 0.103182,0.42014 0.251558,1.01389 0.329724,1.31945 1.357087,5.30477 0.43814,11.50848 -2.095521,14.1465 -1.085532,1.13025 -1.009613,1.8699 -1.087271,-10.593 L 51.18,245.72727 50.555,245.19219 c -0.644275,-0.5516 -1.415305,-0.83107 -2.292848,-0.83107 -0.753822,0 -1.002936,-0.19466 -1.108612,-0.86624 -0.520456,-3.30802 -1.689599,-4.02626 -6.728887,-4.13376 l -3.255347,-0.0694 -0.232021,-1.18055 c -0.331383,-1.68624 -0.520376,-2.30339 -0.768424,-2.50925 -0.119587,-0.0993 -0.335925,-0.41265 -0.480676,-0.69638 -0.381857,-0.74851 -1.752559,-1.74884 -2.946998,-2.15072 -0.697769,-0.23476 -0.936187,-0.51157 -0.936187,-1.08693 0,-0.23402 -0.161418,-0.47928 -0.486106,-0.7383 l -0.486105,-0.38786 v -2.57763 c 0,-2.75184 0.0082,-2.78706 0.73663,-3.2388 0.214173,-0.13279 0.427461,-0.34716 0.473983,-0.47639 0.04659,-0.12923 0.189911,-0.39121 0.318652,-0.58218 1.527673,-2.26619 -1.094571,-5.51815 -3.682054,-4.56627 -2.614058,0.96168 -3.099032,3.67825 -1.018963,5.70782 1.26788,1.23711 0.953871,2.32619 -0.673294,2.33508 -0.977624,0.005 -1.340141,0.23423 -1.340141,0.8461 0,0.60337 0.347261,0.81616 1.331972,0.81616 1.433169,0 2.003707,1.18455 0.936548,1.94444 -0.335826,0.23913 -0.416666,0.39749 -0.416666,0.81624 0,0.70486 -0.177494,0.87556 -1.388895,1.33577 -1.16893,0.44409 -2.709973,1.7648 -3.218716,2.75855 -0.664256,1.29752 -0.665191,1.32357 -0.667766,18.6471 l -0.0016,16.26599 -0.3125,0.39641 c -0.268504,0.34061 -0.322261,0.61205 -0.381939,1.92845 l -0.06939,1.53204 -3.252805,0.0373 c -2.114649,0.0243 -3.317438,0.091 -3.4375,0.19062 -0.192093,0.15942 -0.268504,1.79471 -0.09203,1.97112 0.181792,0.1818 94.419745,0.10802 94.601845,-0.0741 z m -58.015089,-2.58741 c -0.08333,-0.15575 -0.104659,-0.85392 -0.05364,-1.75503 l 0.08481,-1.49638 0.618898,-0.36531 c 2.207529,-1.30306 3.649212,-3.3843 4.401558,-6.35426 0.09908,-0.39114 0.246128,-0.92239 0.326771,-1.18055 0.467536,-1.49693 0.470063,-6.95175 0.0033,-8.87218 -0.08333,-0.34375 -0.233038,-1 -0.332529,-1.45833 -0.186467,-0.85907 -0.595046,-2.27135 -0.904068,-3.125 -0.395981,-1.09383 -1.150771,-3.01282 -1.338403,-3.40278 -2.294241,-4.76808 -2.498556,-8.19654 -0.558923,-9.37904 0.578494,-0.35269 0.657381,-0.31689 1.072178,0.48655 0.393373,0.76193 1.036138,1.18405 1.803395,1.18435 0.268554,1e-4 1.019521,0.0938 1.668832,0.20814 2.897244,0.51035 4.425689,0.22928 4.655397,-0.85609 0.185909,-0.87841 0.750607,-1.15116 1.247227,-0.6024 0.967143,1.06867 -0.59813,2.88026 -2.699343,3.12413 -1.162681,0.13495 -1.243865,0.61662 -1.474967,8.75103 -0.0456,1.60417 -0.142389,3.54167 -0.215141,4.30556 -0.07267,0.76388 -0.19088,3.26388 -0.262517,5.55555 -0.07169,2.29167 -0.200656,4.91667 -0.286712,5.83333 -0.08612,0.91667 -0.197523,3.44792 -0.247704,5.625 l -0.09121,3.95834 -3.639714,0.037 c -3.428888,0.0349 -3.647736,0.022 -3.778149,-0.22164 z m 19.66947,0.16772 c -0.0543,-0.0544 -0.09875,-0.71745 -0.09875,-1.47355 0,-1.65052 -0.325066,-2.61649 -0.970489,-2.88383 -0.88166,-0.36519 -0.988862,-0.63638 -0.770801,-1.94988 0.107448,-0.64671 0.261254,-1.76958 0.341979,-2.49528 0.08071,-0.72569 0.209842,-1.80382 0.286926,-2.39583 0.0771,-0.59201 0.203149,-1.56076 0.280134,-2.15278 0.07694,-0.59201 0.205282,-1.63889 0.285121,-2.32639 0.07989,-0.6875 0.235663,-1.84375 0.34626,-2.56944 0.110564,-0.7257 0.237123,-1.7882 0.281185,-2.36111 0.04413,-0.57292 0.165042,-1.51042 0.268864,-2.08334 0.103839,-0.57291 0.229019,-1.58171 0.278216,-2.24176 0.04921,-0.66006 0.147309,-1.44131 0.218143,-1.73611 0.0707,-0.29481 0.190518,-1.20219 0.266076,-2.01641 0.160433,-1.72943 0.2177,-1.92238 0.569914,-1.92238 0.338927,0 0.352691,2.70056 0.05659,11.11111 -0.169111,4.80354 -0.282169,17.30882 -0.172047,19.02778 l 0.03117,0.48611 -0.699771,0.041 c -0.384891,0.0225 -0.744258,-0.003 -0.798622,-0.0579 z M 37.812512,244.21789 c -0.339271,-0.13636 -0.41186,-0.5352 -0.145833,-0.80122 0.11729,-0.11736 0.910482,-0.16667 2.680544,-0.16667 2.595325,0 2.847228,0.0512 2.847228,0.57845 0,0.49988 -4.328035,0.81306 -5.381939,0.38944 z m 34.02083,-31.13456 c -0.255594,-0.25558 -0.210958,-1.42924 0.06299,-1.6566 0.332972,-0.27635 2.235088,-0.26237 2.412139,0.0177 0.147802,0.23378 0.180856,1.24915 0.05167,1.58586 -0.106135,0.27644 -2.258235,0.3216 -2.526804,0.053 z m 8.246029,-0.0516 c -0.798244,-0.79824 -0.03625,-1.79563 1.371752,-1.79563 1.219636,0 1.321276,0.0805 1.324524,1.04861 0.0033,0.94661 -1.954347,1.48896 -2.696276,0.74702 z m -54.973042,16.19048 c 0.317717,-1.80619 -0.103182,-3.94083 -0.72956,-3.70045 -0.223622,0.0858 -0.328133,4.50834 -0.111713,4.72483 0.360811,0.3608 0.66209,-0.006 0.841208,-1.02438 z m 81.555451,-1.93531 c 0.66355,-1.23987 -0.28333,-3.26491 -1.0289,-2.20045 -0.22003,0.31412 -0.31723,2.18289 -0.12369,2.3765 0.21125,0.21125 1.01058,0.0891 1.15251,-0.17605 z m 8.94511,-12.12719 c 0.12517,-0.46712 0.1045,-1.57139 -0.0418,-2.23016 -0.24163,-1.08835 -0.47432,-6.13579 -0.29805,-6.46516 0.22297,-0.41663 0.4431,-0.38639 2.82861,0.38861 1.94287,0.63118 2.89298,0.9208 5.58485,1.70237 0.53472,0.15525 1.11579,0.33756 1.29125,0.40512 0.80222,0.30886 1.28207,0.0564 0.68791,-0.36201 -0.77957,-0.54893 -1.57337,-1.0381 -1.68827,-1.04041 -0.0692,-0.001 -0.31918,-0.14709 -0.55556,-0.3238 -0.23637,-0.1767 -0.86727,-0.56168 -1.402,-0.85552 -0.53471,-0.29384 -1.12846,-0.65495 -1.31944,-0.80246 -0.19098,-0.14751 -0.53473,-0.3541 -0.76389,-0.4591 -2.49662,-1.14382 -2.15497,-1.82375 1.31945,-2.62589 1.1637,-0.26867 4.95709,-1.25956 6.41284,-1.67514 4.46849,-1.27564 4.58785,-1.40277 1.27062,-1.35347 -1.36131,0.0202 -2.88138,0.0976 -3.37791,0.17195 -1.3537,0.20268 -6.60022,0.56975 -8.11452,0.56772 -0.76481,-9.8e-4 -0.72211,-0.47399 0.22585,-2.50206 0.305,-0.65253 0.66601,-1.49892 0.80222,-1.88087 0.13615,-0.38194 0.40492,-1.04696 0.59713,-1.47781 0.47714,-1.06964 0.59704,-1.64719 0.34194,-1.64719 -0.26261,0 -7.04706,6.86909 -7.04706,7.13499 0,0.69741 0.86501,0.34976 1.90308,-0.76485 0.93391,-1.00277 1.83737,-1.33395 1.84329,-0.67569 0.002,0.18654 -0.41694,1.41024 -0.61045,1.78443 -0.58909,1.13916 -0.23461,1.47201 1.32164,1.24103 0.97666,-0.14495 1.65354,-0.0242 1.65354,0.29497 0,0.22835 -0.42118,0.56492 -0.80831,0.64594 -2.26952,0.47497 -2.74723,0.90692 -1.90542,1.72284 0.68983,0.66861 0.63234,0.73542 -0.58487,0.6796 l -1.0764,-0.0494 -0.0733,1.11111 c -0.10926,1.65525 -0.69142,1.8029 -1.24451,0.31565 -0.23294,-0.62638 -0.54148,-0.89078 -0.88546,-0.75878 -0.42933,0.16475 -0.35622,0.43771 1.25349,4.67924 0.18845,0.49653 0.46716,1.26835 0.61936,1.71517 0.15223,0.44681 0.41893,1.13431 0.5927,1.52778 0.17378,0.39346 0.36199,0.90288 0.41824,1.13205 0.11893,0.48482 0.45362,1.04167 0.626,1.04167 0.0658,0 0.15715,-0.14062 0.20323,-0.3125 z m -34.495777,-8.29631 c 0.954872,-0.60654 -1.336958,-8.1611 -3.093914,-10.19851 l -0.468635,-0.54344 -0.641338,0.16148 c -1.169078,0.29438 -3.884399,0.0625 -4.475459,-0.38219 -0.574442,-0.43219 -3.265091,-1.41353 -3.265091,-1.19086 0,0.12568 1.152575,1.784 1.688352,2.42923 1.388681,1.67233 3.025098,5.63278 3.443143,8.33309 0.100558,0.64931 0.244718,1.25868 0.320423,1.35417 0.168471,0.2125 6.16245,0.24668 6.492519,0.037 z m -0.320669,-14.30046 c 1.486368,-0.67482 1.547867,-0.93826 1.557972,-6.67406 0.0098,-5.90008 0.546588,-5.1935 -4.005117,-5.27778 -4.350771,-0.0806 -4.166027,-0.0197 -4.276362,-1.40864 -0.177641,-2.23647 -0.154691,-2.24871 4.334482,-2.31191 4.39242,-0.0618 3.959694,0.2436 3.959694,-2.7948 0,-4.3842 0.104003,-4.31882 -6.869701,-4.31586 -5.714894,0.002 -5.193536,-0.12039 -5.929445,1.39679 -0.831561,1.71438 -0.841879,1.7495 -0.934826,3.18442 l -0.08546,1.31944 -2.754528,0.0694 c -3.26934,0.0824 -3.148244,0.0175 -3.148244,1.68833 0,1.40291 -0.08054,1.36723 3.08932,1.36723 3.131463,0 3.029577,-0.0497 3.157037,1.54118 0.05151,0.64193 0.163878,1.29786 0.25,1.45761 0.260302,0.48317 0.582809,1.49495 0.584958,1.83522 0.0011,0.17607 0.118602,0.58232 0.261171,0.90278 0.142552,0.32046 0.529199,1.27016 0.859268,2.11043 0.330086,0.84028 0.74562,1.72793 0.923425,1.97255 0.177822,0.24463 0.536795,1.00422 0.797736,1.68798 0.585433,1.53411 0.987025,2.33346 1.219193,2.42681 0.567307,0.22807 6.444012,0.0795 7.009448,-0.17716 z m -9.684284,-1.84767 c -0.0033,-0.17188 -0.09154,-0.65625 -0.197309,-1.07639 -0.179725,-0.71371 -0.307497,-1.0687 -1.062287,-2.95139 -0.160761,-0.40104 -0.382874,-0.9741 -0.49352,-1.27347 -0.110729,-0.29937 -0.346769,-0.71733 -0.524721,-0.92881 -0.374311,-0.44485 -1.184252,-2.57325 -1.289256,-3.388 -0.10958,-0.84968 -2.671965,-1.36174 -3.798195,-0.759 -0.584006,0.31255 0.05988,4.07801 1.056332,6.17794 1.123688,2.36795 6.334875,5.83642 6.308956,4.19912 z m -3.968241,-16.01831 c 0.04642,-0.12083 0.08497,-0.5427 0.08596,-0.9375 9.68e-4,-0.39479 0.094,-1.06155 0.206693,-1.48169 0.112697,-0.42014 0.205774,-0.84202 0.206677,-0.9375 0.0016,-0.2564 -0.664108,-0.21079 -1.088025,0.0744 -0.202756,0.13643 -0.536336,0.33224 -0.741257,0.43513 -0.481545,0.24177 -1.125328,0.91965 -1.476542,1.55472 -0.152723,0.276 -0.355757,0.62709 -0.451394,0.78022 -0.382923,0.61317 -0.125492,0.73187 1.586877,0.73187 1.318749,0 1.600951,-0.0371 1.671013,-0.2197 z"
       id="path864"
       inkscape:connector-curvature="0" />
  </g>
</svg>
