<?xml version="1.0" encoding="UTF-8" standalone="no"?>
<!-- Created with Inkscape (http://www.inkscape.org/) -->

<svg
   xmlns:dc="http://purl.org/dc/elements/1.1/"
   xmlns:cc="http://creativecommons.org/ns#"
   xmlns:rdf="http://www.w3.org/1999/02/22-rdf-syntax-ns#"
   xmlns:svg="http://www.w3.org/2000/svg"
   xmlns="http://www.w3.org/2000/svg"
   xmlns:sodipodi="http://sodipodi.sourceforge.net/DTD/sodipodi-0.dtd"
   xmlns:inkscape="http://www.inkscape.org/namespaces/inkscape"
   width="150mm"
   height="150mm"
   viewBox="0 0 150 150"
   version="1.1"
   id="svg8"
   inkscape:version="0.92.4 (5da689c313, 2019-01-14)"
   sodipodi:docname="Clients_DB.svg">
  <defs
     id="defs2">
    <marker
       style="overflow:visible"
       refY="0"
       refX="0"
       orient="auto"
       id="DistanceX">
      <path
         id="path4546"
         style="stroke:#000000;stroke-width:0.5"
         d="M 3,-3 -3,3 M 0,-5 V 5"
         inkscape:connector-curvature="0" />
    </marker>
    <pattern
       y="0"
       x="0"
       width="8"
       patternUnits="userSpaceOnUse"
       id="Hatch"
       height="8">
      <path
         id="path4549"
         stroke-width="0.25"
         stroke="#000000"
         linecap="square"
         d="M8 4 l-4,4" />
      <path
         id="path4551"
         stroke-width="0.25"
         stroke="#000000"
         linecap="square"
         d="M6 2 l-4,4" />
      <path
         id="path4553"
         stroke-width="0.25"
         stroke="#000000"
         linecap="square"
         d="M4 0 l-4,4" />
    </pattern>
    <symbol
       id="*Model_Space" />
    <symbol
       id="*Paper_Space" />
    <symbol
       id="*Paper_Space0" />
  </defs>
  <sodipodi:namedview
     id="base"
     pagecolor="#ffffff"
     bordercolor="#666666"
     borderopacity="1.0"
     inkscape:pageopacity="0.0"
     inkscape:pageshadow="2"
     inkscape:zoom="0.9899495"
     inkscape:cx="291.74667"
     inkscape:cy="264.56306"
     inkscape:document-units="mm"
     inkscape:current-layer="layer1"
     showgrid="false"
     inkscape:window-width="2137"
     inkscape:window-height="1080"
     inkscape:window-x="401"
     inkscape:window-y="917"
     inkscape:window-maximized="0" />
  <metadata
     id="metadata5">
    <rdf:RDF>
      <cc:Work
         rdf:about="">
        <dc:format>image/svg+xml</dc:format>
        <dc:type
           rdf:resource="http://purl.org/dc/dcmitype/StillImage" />
        <dc:title />
      </cc:Work>
    </rdf:RDF>
  </metadata>
  <g
     inkscape:label="Layer 1"
     inkscape:groupmode="layer"
     id="layer1"
     transform="translate(0,-147)">
    <rect
       style="fill:#ffffff;fill-opacity:1;stroke:none;stroke-width:1.984375;stroke-linecap:round;stroke-linejoin:round;stroke-miterlimit:4;stroke-dasharray:none;stroke-opacity:1"
       id="rect847"
       width="149.92841"
       height="149.92851"
       x="0.03581943"
       y="147.03577" />
    <g
       id="g4984"
       transform="matrix(1.0029355,0,0,1.0016699,99.068848,352.15475)">
      <path
         inkscape:connector-curvature="0"
         id="path4954"
         d="m -62.173968,-148.53232 c -3.58334,-1.69901 -4.31159,-6.45417 -1.39065,-9.08034 1.737,-1.56172 4.0986,-1.88745 6.17209,-0.85131 1.22702,0.61315 1.87626,1.25468 2.54861,2.51835 0.33166,0.62336 0.41438,1.09722 0.41619,2.38437 0.002,1.42992 -0.0593,1.71766 -0.55867,2.61915 -1.07373,1.93853 -2.69048,2.86309 -5.00063,2.85966 -0.91217,-0.001 -1.49294,-0.12083 -2.18694,-0.44988 z"
         style="fill:#008000;fill-opacity:1;stroke:#ffff02;stroke-width:0.07142857;stroke-miterlimit:4;stroke-dasharray:1.14285713, 0.57142857, 0.28571428, 0.57142857;stroke-dashoffset:0;stroke-opacity:1" />
      <path
         inkscape:connector-curvature="0"
         id="path4956"
         d="m -98.743168,-129.93774 v -74.83928 h 74.74479 74.74479 v 74.83928 74.839285 h -74.74479 -74.74479 z m 40.62437,49.395935 c 3.38494,-0.95958 6.08113,-3.80116 6.89906,-7.27108 0.95541,-4.05314 -0.78064,-8.30724 -4.32602,-10.60068 -3.12988,-2.024655 -7.48357,-2.024315 -10.61059,7.9e-4 -4.32862,2.80335 -5.81242,8.18568 -3.54612,12.86319 0.66803,1.37876 2.63468,3.42223 3.98106,4.13655 2.49517,1.32382 4.99533,1.61031 7.60261,0.87119 z m 22.38661,0.2136 c 4.49416,-0.95208 7.68292,-4.57103 7.98603,-9.06339 0.30597,-4.53481 -2.60498,-8.79845 -6.91641,-10.13038 -2.66944,-0.824665 -5.9392,-0.38527 -8.24825,1.10841 -5.29029,3.42219 -6.16714,10.5795 -1.85599,15.14954 2.4254,2.57105 5.71326,3.63945 9.03462,2.93582 z m 53.97265,0.0835 c 2.58067,-0.41386 5.1972,-2.13665 6.72872,-4.43035 2.41632,-3.61883 1.97306,-8.8236 -1.02662,-12.05461 -1.96818,-2.11997 -4.39823,-3.17598 -7.3085,-3.17598 -9.0572797,0 -13.3197897,11.06032 -6.62015,17.17789 2.31845,2.11703 5.16028,2.97479 8.22655,2.48305 z m -88.90569,-15.40209 c 3.03624,-5.191725 9.43568,-7.133815 14.82236,-4.498245 1.74175,0.852195 4.19488,3.215195 4.91821,4.737525 l 0.46795,0.98485 1.27567,0.007 c 0.94622,0.005 1.27567,-0.0583 1.27567,-0.24683 0,-0.44167 1.41423,-2.46358 2.405,-3.43842 3.62358,-3.565295 9.32279,-4.258115 13.61215,-1.65476 0.64988,0.39443 1.65338,1.18073 2.23001,1.74732 0.9952,0.97789 2.35254,2.93296 2.35254,3.38852 0,0.15444 4.53847,0.21152 16.81994,0.21152 12.2814803,0 16.8199403,-0.0571 16.8199403,-0.21152 0,-0.45556 1.35735,-2.41063 2.35255,-3.38852 2.2745897,-2.235015 4.8134297,-3.284175 7.9472997,-3.284175 3.07166,0 5.75259,1.08381 7.89485,3.191615 0.99078,0.97483 2.405,2.99674 2.405,3.43841 0,0.20627 0.90836,0.25418 4.8192,0.25418 h 4.8192 l -0.005,-17.623135 c -0.003,-10.93926 -0.0756,-17.93074 -0.1917,-18.43417 -0.70321,-3.04857 -3.29137,-5.42855 -6.42564,-5.90878 -0.73568,-0.11272 -5.84112,-0.16655 -12.84382,-0.13542 l -11.6227497,0.0517 -0.0484,14.50483 -0.0484,14.50484 h -43.9385503 -43.93856 v 3.40179 3.40178 h 1.98437 1.98438 v 3.118295 3.11831 h 3.56586 3.56587 z m -11.94166,-15.512795 c 1.0115,-1.09764 1.92768,-2.6876 7.32357,-12.70945 l 6.16743,-11.45486 3.51821,-0.0514 3.5182,-0.0514 v 1.79955 1.79956 h 2.17337 2.17336 v -1.79539 -1.79538 l 3.54352,8e-5 3.54353,9e-5 6.10801,11.36877 6.10801,11.36877 -1.37858,1.38784 -1.37857,1.38784 h 20.26424 20.26424029 v -20.12723 c 0,-11.06998 -0.0636,-20.12724 -0.14137,-20.12724 -0.0777,0 -8.22344999,8.08175 -18.10154029,17.95944 l -17.96018,17.95944 -1.8367,-3.42291 -1.8367,-3.42291 v -2.64012 -2.64011 l -2.36235,-4.40301 c -1.29929,-2.42166 -2.36235,-4.4583 -2.36235,-4.52588 0,-0.0676 0.72288,-0.12286 1.6064,-0.12286 h 1.6064 v 0.56696 0.56696 h 2.32073 2.32073 l 1.41178,1.38202 c 2.18149,2.13549 4.21403,2.96233 7.27042,2.95759 4.41176,-0.007 8.0451,-2.68848 9.59258,-7.07993 0.34384,-0.97576 0.39521,-1.51619 0.36826,-3.87426 -0.0292,-2.55637 -2.6e-4,-2.80376 0.4304,-3.68527 0.60942,-1.24721 14.8603003,-15.51144 16.1615903,-16.17673 0.76732,-0.39229 1.19217999,-0.44528 4.34673,-0.54212 2.57274,-0.079 3.63107,-0.18148 4.00659,-0.38804 0.88213,-0.48525 3.9683997,-3.6473 4.3313997,-4.43775 0.26924,-0.58629 0.34809,-1.22465 0.35131,-2.84427 0.005,-2.3322 -0.0875,-2.54189 -1.1171097,-2.54189 -0.59403,0 -0.88028,0.21188 -2.5952,1.92096 l -1.92752,1.92097 -2.42243,-0.6275 c -1.33234,-0.34513 -2.49092001,-0.68699 -2.57462001,-0.75969 -0.0837,-0.0727 -0.4443,-1.22821 -0.80133,-2.56779 l -0.64912999,-2.4356 1.88800999,-1.89445 c 1.84623001,-1.85255 1.88800001,-1.91379 1.88800001,-2.7687 0,-0.62286 -0.086,-0.90724 -0.29894,-0.98896 -0.16442,-0.0631 -1.16369,-0.11285 -2.22061001,-0.11057 -2.47459999,0.005 -3.08996999,0.28026 -5.17753999,2.31299 -2.3586,2.29665 -2.38735,2.37179 -2.51089,6.5653 -0.0913,3.09843 -0.14921,3.58231 -0.50901,4.25224 -0.61043,1.13657 -15.4578503,15.87135 -16.4028003,16.27836 -0.60737,0.2616 -1.23833,0.31736 -3.21021,0.28371 -1.3573,-0.0231 -2.87777,0.0561 -3.40179,0.17742 -2.77873,0.64314 -5.41022,2.72273 -6.69601,5.29167 -0.90001,1.79818 -1.19889,3.13621 -1.11704,5.00089 l 0.0619,1.41153 -1.55915,-2.6e-4 -1.55915,-5.3e-4 v 0.56697 0.56696 h -2.1354 -2.13541 l -2.85306,-5.32103 -2.85307,-5.32102 0.633,-1.15182 c 3.1698,-5.76775 -0.14478,-12.71236 -6.76729,-14.17862 -0.48201,-0.10672 -0.51972,-0.18338 -0.51972,-1.05641 0,-0.91994 0.0129,-0.94134 0.56696,-0.94134 h 0.56697 v -3.97457 -3.97456 l -2.31511,0.0531 -2.3151,0.0531 v 3.87425 3.87426 l 0.51972,0.0598 c 0.48803,0.0562 0.51971,0.11619 0.51971,0.9849 v 0.9251 l -0.8032,0.2059 c -2.70134,0.69246 -4.59582,2.02249 -6.03406,4.23626 -1.9249,2.96283 -2.03948,6.70623 -0.30535,9.97495 l 0.57237,1.07888 -2.82899,5.25222 -2.829,5.25223 -2.09373,0.0533 -2.09372,0.0533 -0.0604,-0.52578 -0.0604,-0.52579 -3.45569,-0.0515 -3.45569,-0.0515 0.0539,1.94142 0.0539,1.94142 h 3.40179 3.40178 l 0.0598,-0.51972 0.0598,-0.51972 h 1.5987 1.5987 l -0.31245,0.61422 c -0.17185,0.33781 -1.27962,2.41043 -2.4617,4.60581 l -2.14924,3.99161 v 2.65494 2.65494 l -2.01356,3.73013 c -1.68055,3.11321 -2.08243,4.02217 -2.42997,5.49594 -0.23848,1.01132 -0.33644,1.76581 -0.22925,1.76581 0.10293,0 0.70741,-0.56457 1.34328,-1.2546 z"
         style="fill:#008000;fill-opacity:1;stroke:#ffff02;stroke-width:0.07142857;stroke-miterlimit:4;stroke-dasharray:1.14285713, 0.57142857, 0.28571428, 0.57142857;stroke-dashoffset:0;stroke-opacity:1" />
      <path
         inkscape:connector-curvature="0"
         id="path4958"
         d="m -67.771838,-137.82799 c 0.61915,-1.20901 3.60945,-6.72079 3.68983,-6.80117 0.0419,-0.0419 0.64609,0.0999 1.34272,0.31509 2.01501,0.62238 5.15385,0.46671 6.64133,-0.32936 0.36348,-0.19454 0.52055,0.0376 2.40088,3.54761 1.10657,2.06567 2.01195,3.80544 2.01195,3.86615 0,0.0607 -1.36072,0.11038 -3.02381,0.11038 h -3.02381 v -1.79538 -1.79539 h -2.17336 -2.17337 v 1.79539 1.79538 h -3.02765 -3.02765 z"
         style="fill:#008000;fill-opacity:1;stroke:#ffff02;stroke-width:0.07142857;stroke-miterlimit:4;stroke-dasharray:1.14285713, 0.57142857, 0.28571428, 0.57142857;stroke-dashoffset:0;stroke-opacity:1" />
      <path
         inkscape:connector-curvature="0"
         id="path4960"
         d="m -31.227168,-136.11937 -2.12612,-1.23135 v -2.68687 -2.68688 l 2.1081,-1.2134 c 1.15945,-0.66738 2.17855,-1.24128 2.26467,-1.27535 0.0861,-0.0341 1.17783,0.51873 2.42601,1.22842 l 2.26942,1.29036 10e-4,2.64584 0.001,2.64583 -2.22523,1.27567 c -1.22387,0.70162 -2.3081,1.26744 -2.40939,1.25738 -0.1013,-0.0101 -1.14093,-0.57241 -2.31029,-1.24965 z"
         style="fill:#008000;fill-opacity:1;stroke:#ffff02;stroke-width:0.07142857;stroke-miterlimit:4;stroke-dasharray:1.14285713, 0.57142857, 0.28571428, 0.57142857;stroke-dashoffset:0;stroke-opacity:1" />
      <path
         inkscape:connector-curvature="0"
         id="path4962"
         d="m -15.115938,-124.2681 c 3.32498,-3.32619 6.0671703,-6.04762 6.0937603,-6.04762 0.0266,0 0.0484,2.72143 0.0484,6.04762 v 6.04762 h -6.0937603 -6.09376 z"
         style="fill:#008000;fill-opacity:1;stroke:#ffff02;stroke-width:0.07142857;stroke-miterlimit:4;stroke-dasharray:1.14285713, 0.57142857, 0.28571428, 0.57142857;stroke-dashoffset:0;stroke-opacity:1" />
      <path
         inkscape:connector-curvature="0"
         id="path4964"
         d="m 10.491952,-125.68551 v -5.19717 h 3.02381 3.02381 v 5.19717 5.19718 h -3.02381 -3.02381 z"
         style="fill:#008000;fill-opacity:1;stroke:#ffff02;stroke-width:0.07142857;stroke-miterlimit:4;stroke-dasharray:1.14285713, 0.57142857, 0.28571428, 0.57142857;stroke-dashoffset:0;stroke-opacity:1" />
      <path
         inkscape:connector-curvature="0"
         id="path4966"
         d="m 20.319332,-125.68551 v -5.19717 l 3.73252,0.001 c 2.12408,5.3e-4 4.05827,0.0905 4.48846,0.20873 0.46876,0.12877 1.05378,0.51689 1.5399,1.0216 1.03101,1.07044 1.20043,1.91152 1.20043,5.95946 v 3.2035 h -5.48065 -5.48066 z"
         style="fill:#008000;fill-opacity:1;stroke:#ffff02;stroke-width:0.07142857;stroke-miterlimit:4;stroke-dasharray:1.14285713, 0.57142857, 0.28571428, 0.57142857;stroke-dashoffset:0;stroke-opacity:1" />
      <path
         inkscape:connector-curvature="0"
         id="path4968"
         d="m 14.308852,-85.347835 c -1.93055,-0.9647 -2.90531,-2.54625 -2.90531,-4.71385 0,-2.06148 1.04982,-3.77508 2.92044,-4.76697 0.6324,-0.33533 1.1122,-0.42391 2.31008,-0.4265 1.32409,-0.003 1.63689,0.066 2.51799,0.55404 1.7876,0.99024 2.72801,2.58874 2.73223,4.64427 0.004,2.1635 -0.97002,3.7321 -2.92562,4.70932 -1.6126,0.80583 -3.03679,0.80573 -4.64981,-2.6e-4 z"
         style="fill:#008000;fill-opacity:1;stroke:#ffff02;stroke-width:0.07142857;stroke-miterlimit:4;stroke-dasharray:1.14285713, 0.57142857, 0.28571428, 0.57142857;stroke-dashoffset:0;stroke-opacity:1" />
      <path
         inkscape:connector-curvature="0"
         id="path4970"
         d="m -39.930108,-85.347525 c -1.9556,-0.97722 -2.93008,-2.54582 -2.92563,-4.70932 0.004,-2.05553 0.94463,-3.65403 2.73223,-4.64427 0.8811,-0.48808 1.19391,-0.55691 2.51799,-0.55404 1.19788,0.003 1.67769,0.0912 2.31008,0.4265 1.87683,0.99518 2.92044,2.70442 2.92044,4.78311 0,2.19454 -0.94125,3.71626 -2.90593,4.69802 -1.61236,0.80571 -3.03682,0.80571 -4.64918,0 z"
         style="fill:#008000;fill-opacity:1;stroke:#ffff02;stroke-width:0.07142857;stroke-miterlimit:4;stroke-dasharray:1.14285713, 0.57142857, 0.28571428, 0.57142857;stroke-dashoffset:0;stroke-opacity:1" />
      <path
         inkscape:connector-curvature="0"
         id="path4972"
         d="m -62.576128,-84.998595 c -1.10095,-0.35464 -2.39213,-1.51104 -2.98793,-2.67604 -1.70067,-3.3254 0.49959,-7.28875 4.23438,-7.62741 3.19829,-0.29001 5.75962,2.15827 5.7128,5.46064 -0.0285,2.01233 -1.02573,3.55251 -2.90958,4.49388 -0.93458,0.46702 -1.37744,0.57423 -2.30753,0.55864 -0.63305,-0.0106 -1.41701,-0.10498 -1.74214,-0.20971 z"
         style="fill:#008000;fill-opacity:1;stroke:#ffff02;stroke-width:0.07142857;stroke-miterlimit:4;stroke-dasharray:1.14285713, 0.57142857, 0.28571428, 0.57142857;stroke-dashoffset:0;stroke-opacity:1" />
    </g>
  </g>
</svg>
