<?xml version="1.0" encoding="UTF-8" standalone="no"?>
<!-- Created with Inkscape (http://www.inkscape.org/) -->

<svg
   xmlns:dc="http://purl.org/dc/elements/1.1/"
   xmlns:cc="http://creativecommons.org/ns#"
   xmlns:rdf="http://www.w3.org/1999/02/22-rdf-syntax-ns#"
   xmlns:svg="http://www.w3.org/2000/svg"
   xmlns="http://www.w3.org/2000/svg"
   xmlns:sodipodi="http://sodipodi.sourceforge.net/DTD/sodipodi-0.dtd"
   xmlns:inkscape="http://www.inkscape.org/namespaces/inkscape"
   width="150mm"
   height="150mm"
   viewBox="0 0 150 150"
   version="1.1"
   id="svg8"
   inkscape:version="0.92.4 (5da689c313, 2019-01-14)"
   sodipodi:docname="IconFacility.svg">
  <defs
     id="defs2">
    <marker
       style="overflow:visible"
       refY="0"
       refX="0"
       orient="auto"
       id="DistanceX">
      <path
         id="path4546"
         style="stroke:#000000;stroke-width:0.5"
         d="M 3,-3 -3,3 M 0,-5 V 5"
         inkscape:connector-curvature="0" />
    </marker>
    <pattern
       y="0"
       x="0"
       width="8"
       patternUnits="userSpaceOnUse"
       id="Hatch"
       height="8">
      <path
         id="path4549"
         stroke-width="0.25"
         stroke="#000000"
         linecap="square"
         d="M8 4 l-4,4" />
      <path
         id="path4551"
         stroke-width="0.25"
         stroke="#000000"
         linecap="square"
         d="M6 2 l-4,4" />
      <path
         id="path4553"
         stroke-width="0.25"
         stroke="#000000"
         linecap="square"
         d="M4 0 l-4,4" />
    </pattern>
    <symbol
       id="*Model_Space" />
    <symbol
       id="*Paper_Space" />
    <symbol
       id="*Paper_Space0" />
    <marker
       id="DistanceX-0"
       orient="auto"
       refX="0"
       refY="0"
       style="overflow:visible">
      <path
         d="M 3,-3 -3,3 M 0,-5 V 5"
         style="stroke:#000000;stroke-width:0.5"
         id="path4546-0"
         inkscape:connector-curvature="0" />
    </marker>
    <pattern
       height="8"
       id="Hatch-8"
       patternUnits="userSpaceOnUse"
       width="8"
       x="0"
       y="0">
      <path
         d="M8 4 l-4,4"
         linecap="square"
         stroke="#000000"
         stroke-width="0.25"
         id="path4549-6" />
      <path
         d="M6 2 l-4,4"
         linecap="square"
         stroke="#000000"
         stroke-width="0.25"
         id="path4551-0" />
      <path
         d="M4 0 l-4,4"
         linecap="square"
         stroke="#000000"
         stroke-width="0.25"
         id="path4553-4" />
    </pattern>
    <symbol
       id="*Model_Space-4" />
    <symbol
       id="*Paper_Space-0" />
    <symbol
       id="*Paper_Space0-9" />
    <marker
       id="DistanceX-9"
       orient="auto"
       refX="0"
       refY="0"
       style="overflow:visible">
      <path
         inkscape:connector-curvature="0"
         d="M 3,-3 -3,3 M 0,-5 V 5"
         style="stroke:#000000;stroke-width:0.5"
         id="path4546-5" />
    </marker>
    <pattern
       height="8"
       id="Hatch-88"
       patternUnits="userSpaceOnUse"
       width="8"
       x="0"
       y="0">
      <path
         d="M8 4 l-4,4"
         linecap="square"
         stroke="#000000"
         stroke-width="0.25"
         id="path4549-0" />
      <path
         d="M6 2 l-4,4"
         linecap="square"
         stroke="#000000"
         stroke-width="0.25"
         id="path4551-4" />
      <path
         d="M4 0 l-4,4"
         linecap="square"
         stroke="#000000"
         stroke-width="0.25"
         id="path4553-3" />
    </pattern>
    <symbol
       id="*Model_Space-5" />
    <symbol
       id="*Paper_Space-6" />
    <symbol
       id="*Paper_Space0-7" />
  </defs>
  <sodipodi:namedview
     id="base"
     pagecolor="#ffffff"
     bordercolor="#666666"
     borderopacity="1.0"
     inkscape:pageopacity="0.0"
     inkscape:pageshadow="2"
     inkscape:zoom="1.979899"
     inkscape:cx="402.60875"
     inkscape:cy="283.26978"
     inkscape:document-units="mm"
     inkscape:current-layer="layer1"
     showgrid="false"
     inkscape:window-width="3840"
     inkscape:window-height="2097"
     inkscape:window-x="-8"
     inkscape:window-y="-8"
     inkscape:window-maximized="1"
     showguides="false"
     inkscape:guide-bbox="true" />
  <metadata
     id="metadata5">
    <rdf:RDF>
      <cc:Work
         rdf:about="">
        <dc:format>image/svg+xml</dc:format>
        <dc:type
           rdf:resource="http://purl.org/dc/dcmitype/StillImage" />
        <dc:title></dc:title>
      </cc:Work>
    </rdf:RDF>
  </metadata>
  <g
     inkscape:label="Layer 1"
     inkscape:groupmode="layer"
     id="layer1"
     transform="translate(0,-147)">
    <path
       style="fill:#008000;stroke-width:0.13404825"
       d="m 0,222 v -75 h 75 75 v 75 75 H 75 0 Z m 83.00741,49.73037 c 1.19914,-0.11144 2.63267,-0.2661 3.185619,-0.34371 2.2215,-0.31177 5.84707,-0.9452 6.099191,-1.0656 0.299819,-0.14317 0.95646,-0.26367 6.233249,-1.14386 2.027481,-0.33819 3.806971,-0.66701 3.954421,-0.73073 0.14745,-0.0637 1.02212,-0.21665 1.9437,-0.33987 1.91177,-0.25562 3.78334,-0.61639 5.19242,-1.0009 1.21676,-0.33203 4.37076,-1.9319 4.95191,-2.51186 0.2401,-0.23962 0.46754,-0.43566 0.50542,-0.43566 0.0379,0 1.35189,-1.03083 2.92002,-2.29073 1.56813,-1.25989 2.98078,-2.34188 3.13923,-2.4044 0.15844,-0.0625 0.36957,-0.22658 0.46916,-0.36456 0.0996,-0.13798 0.54302,-0.51781 0.98538,-0.84406 1.82516,-1.3461 5.06897,-4.30741 6.29929,-5.75069 0.59591,-0.69906 0.95809,-1.28072 1.21027,-1.9437 0.19793,-0.52035 0.41398,-1.05084 0.48012,-1.17886 0.15308,-0.29634 0.15732,-1.75018 0.006,-1.91871 -0.0631,-0.07 -0.25024,-0.52053 -0.41596,-1.00109 l -0.30132,-0.87375 0.29515,-0.50025 c 0.16234,-0.27513 0.34524,-0.50025 0.40645,-0.50025 0.16366,0 0.53247,-1.36554 0.53247,-1.97152 0,-1.19497 -1.10926,-2.59165 -2.69923,-3.39863 -0.71396,-0.36238 -1.04499,-0.44342 -2.03025,-0.49707 -1.23098,-0.067 -2.50936,0.11339 -3.14212,0.44345 -0.20481,0.10683 -0.42061,0.19461 -0.47956,0.19507 -0.26796,0.002 -3.11754,1.51339 -3.41577,1.81161 -0.18369,0.18369 -0.39245,0.33398 -0.46391,0.33398 -0.20776,0 -0.83682,0.56374 -3.05067,2.73391 -2.15973,2.11712 -3.81002,3.35909 -5.12916,3.86009 -0.38606,0.14662 -1.00355,0.4077 -1.37218,0.58016 -0.68735,0.32159 -1.97406,0.62464 -3.70928,0.87363 -2.93621,0.42133 -6.090792,0.79351 -6.753192,0.79674 -0.29859,0.001 -0.61828,0.0781 -0.71041,0.17022 -0.22587,0.22594 -6.529169,0.2396 -7.00363,0.0152 -0.17718,-0.0838 -0.7444,-0.22601 -1.26049,-0.31599 -1.03745,-0.18088 -3.05964,-0.72849 -3.80789,-1.03119 -0.616789,-0.2495 -4.366399,-2.13219 -4.936209,-2.47847 -0.65596,-0.39864 -3.18461,-1.25809 -4.46363,-1.51714 -0.62449,-0.12647 -1.19575,-0.27606 -1.26948,-0.33241 -0.0737,-0.0564 -0.4463,-0.17563 -0.82795,-0.26507 -1.36416,-0.31967 -3.06011,-0.92552 -3.09736,-1.10646 -0.0308,-0.14959 0.97513,-0.24437 5.36193,-0.50521 2.96991,-0.17659 5.88241,-0.34587 6.47223,-0.37618 1.16691,-0.06 2.688339,0.1079 7.037529,0.77648 0.40549,0.0623 1.219841,0.18669 1.80965,0.27635 0.58981,0.0896 1.10255,0.20368 1.13941,0.25338 0.0581,0.0783 0.73073,0.19495 3.8874,0.67424 2.7032,0.41044 6.678772,1.11445 6.868162,1.21624 0.31099,0.16714 1.67336,0.16028 1.77796,-0.009 0.0456,-0.0737 0.19722,-0.13405 0.33701,-0.13405 0.57029,0 2.02684,-0.84864 2.61964,-1.5263 0.32759,-0.37449 0.59562,-0.7491 0.59562,-0.83247 0,-0.0834 0.14642,-0.29801 0.32538,-0.47696 0.41981,-0.41982 1.10272,-2.14199 1.27821,-3.22343 0.30376,-1.87184 0.10305,-3.85815 -0.50288,-4.97696 -0.47731,-0.88131 -1.71003,-1.989 -2.80676,-2.5221 -0.49934,-0.24271 -0.94206,-0.48919 -0.98382,-0.54772 -0.0858,-0.12027 -3.18903,-1.13875 -4.61576,-1.5149 -0.51609,-0.13607 -0.9685,-0.28686 -1.00536,-0.33509 -0.0369,-0.0482 -0.24799,-0.12557 -0.46917,-0.17186 -0.22118,-0.0463 -1.12227,-0.23623 -2.00242,-0.42212 -2.23919,-0.4729 -4.968181,-0.83208 -7.716082,-1.01556 -1.29021,-0.0861 -2.466488,-0.20602 -2.613939,-0.26637 -0.147451,-0.0603 -0.630031,-0.14575 -1.07239,-0.18977 -1.11936,-0.11139 -3.28286,-0.57427 -4.547618,-0.97296 -1.40804,-0.44385 -4.20212,-1.78518 -5.37195,-2.57887 -1.42286,-0.96537 -4.48161,-2.50972 -6.29209,-3.17686 -0.889212,-0.32767 -1.7374,-0.65456 -1.88485,-0.72643 -0.3878,-0.189 -1.986542,-0.63554 -3.139792,-0.87695 -5.116069,-1.07097 -9.65993,-1.08737 -15.42734,-0.0557 -1.32621,0.23723 -3.645719,0.79783 -3.808329,0.92043 -0.0796,0.06 -0.627221,0.24517 -1.217031,0.41154 -2.30653,0.65061 -4.6019,1.49349 -5.8311,2.14122 -0.11059,0.0583 -0.36504,0.3479 -0.56544,0.64362 -0.38524,0.56846 -0.428649,0.941 -1.04356,8.95477 -0.0679,0.88472 -0.27303,3.53887 -0.45586,5.89812 -0.18283,2.35925 -0.36942,4.8626 -0.41465,5.56301 -0.0452,0.7004 -0.1328,1.3941 -0.19464,1.54155 -0.11382,0.27143 -0.41454,4.16441 -0.41093,5.31969 0.003,0.8363 0.19295,1.29302 0.60398,1.44929 0.1863,0.0708 1.17019,0.25025 2.18644,0.39872 1.94194,0.28371 2.95732,0.53044 3.84694,0.93478 0.2949,0.13404 0.82364,0.34095 1.17497,0.4598 0.73109,0.24732 2.21306,0.96941 2.51135,1.22366 0.110591,0.0942 0.864621,0.51714 1.67561,0.93974 0.81099,0.42261 1.56501,0.84469 1.6756,0.93796 0.110591,0.0933 0.924932,0.5473 1.809652,1.00894 0.88472,0.46165 1.759389,0.94275 1.9437,1.06912 0.18432,0.12637 0.93616,0.54193 1.67076,0.92346 0.7346,0.38153 1.43305,0.78186 1.55211,0.8896 0.119059,0.10775 0.26377,0.19591 0.321579,0.19591 0.0578,0 0.927721,0.4593 1.933141,1.02066 1.00542,0.56136 2.461419,1.3526 3.23555,1.7583 0.77413,0.4057 1.56098,0.84651 1.74857,0.97957 0.18759,0.13305 0.67016,0.3942 1.07239,0.58033 0.40222,0.18612 1.09325,0.55017 1.53561,0.80898 0.44236,0.25882 1.46782,0.8106 2.27882,1.22619 0.81099,0.41559 1.56501,0.83397 1.6756,0.92974 0.11059,0.0958 1.00736,0.58777 1.99281,1.09335 0.98545,0.50558 2.19189,1.12524 2.68096,1.37703 1.19703,0.61627 2.93756,1.06943 4.13793,1.07735 0.53344,0.004 1.951,-0.0848 3.15014,-0.1962 z m -51.98596,-13.0641 c 0.19015,-0.0723 0.46616,-0.32899 0.61338,-0.57043 0.25254,-0.41422 0.26766,-0.67736 0.26777,-4.66152 1.1e-4,-4.22622 0.18739,-8.27628 0.406,-8.78016 0.064,-0.14746 0.21154,-1.44437 0.32792,-2.88204 0.19902,-2.45844 0.37284,-4.3145 1.01055,-10.79089 0.14519,-1.47453 0.30075,-3.06824 0.3457,-3.54158 0.0449,-0.47334 0.13183,-0.95591 0.19307,-1.07238 0.0613,-0.11648 0.20945,-1.02612 0.32932,-2.02143 0.11988,-0.9953 0.35549,-2.86528 0.52357,-4.15549 0.33957,-2.60652 0.30098,-3.12009 -0.26863,-3.57504 -0.45333,-0.36208 -0.74878,-0.41247 -3.00066,-0.51178 -0.99531,-0.0439 -2.29223,-0.10425 -2.88204,-0.13413 -6.42327,-0.3254 -6.21789,-0.37526 -6.62063,1.60701 -0.0899,0.44236 -0.21964,0.92493 -0.28836,1.07238 -0.28892,0.6199 -1.5032,8.76891 -1.81769,12.1984 -0.0473,0.51608 -0.13078,0.99866 -0.18546,1.07238 -0.098,0.1322 -0.14463,0.58553 -0.41332,4.02145 -0.41541,5.31202 -0.54556,8.4231 -0.60844,14.54424 -0.0758,7.37971 -0.0914,7.20634 0.68703,7.66095 0.33388,0.195 0.97374,0.26078 3.68603,0.37898 6.61516,0.28829 7.27587,0.3004 7.69489,0.14108 z m 81.17694,-36.60459 c 0,-8.4328 -0.0121,-8.8761 -0.25465,-9.34986 -0.23865,-0.4661 -25.39355,-25.76544 -25.61834,-25.76544 -0.0553,0 -0.250861,0.19605 -0.43458,0.43566 -0.183709,0.23961 -5.847469,5.95509 -12.586139,12.70107 -11.56369,11.57623 -12.26137,12.3013 -12.41648,12.90407 -0.1767,0.68668 -0.21263,1.42538 -0.0854,1.75682 0.0466,0.12155 0.30693,0.2328 0.63673,0.27213 0.30681,0.0366 1.20629,0.13888 1.998849,0.2273 0.792561,0.0884 1.441021,0.20389 1.441021,0.25658 0,0.0527 0.33719,0.13542 0.749319,0.18386 1.741291,0.20465 5.1099,1.14558 6.37355,1.78028 0.34311,0.17233 0.69148,0.31333 0.77416,0.31333 0.0827,0 0.81641,0.34685 1.63051,0.77078 3.059299,1.59307 3.83874,1.94377 4.882639,2.19692 0.589821,0.14303 1.19303,0.3304 1.340491,0.41636 0.170389,0.0993 1.04975,0.16203 2.412869,0.17199 1.17962,0.009 2.223251,0.0264 2.31917,0.0395 0.24989,0.0341 0.56286,0.86179 0.56286,1.48859 0,0.40952 0.0852,0.61409 0.36311,0.87177 0.46403,0.43028 0.57047,0.27626 0.57318,-0.82941 0.002,-0.73137 0.046,-0.87717 0.34587,-1.13941 0.18911,-0.1654 0.47563,-0.33995 0.63673,-0.3879 0.49236,-0.14653 6.15199,-0.12324 6.69498,0.0276 0.70198,0.19495 0.89623,0.56683 0.98381,1.88338 0.071,1.0681 0.23907,1.68773 0.51082,1.88382 0.0673,0.0485 0.61027,0.15696 1.20664,0.24092 2.10642,0.29653 6.055431,1.18026 6.640281,1.48599 0.11447,0.0598 0.9923,0.35822 1.95075,0.66307 2.22865,0.70885 3.98917,1.60576 5.49598,2.79997 0.36863,0.29215 0.71548,0.53607 0.77077,0.54203 0.0553,0.006 0.10054,-3.97279 0.10054,-8.84168 z m -34.048259,-1.86954 c -0.110591,-0.0641 -0.307541,-0.14946 -0.43766,-0.18976 -0.43049,-0.13329 -0.50067,-0.71858 -0.50067,-4.17521 v -3.40739 l 0.39114,-0.43777 0.391149,-0.43777 h 3.57428 3.57426 l 0.39115,0.43777 0.391149,0.43777 v 3.56341 3.5634 l -0.416319,0.38891 -0.41632,0.3889 -3.37054,-0.008 c -1.8538,-0.004 -3.46103,-0.0603 -3.57162,-0.12438 z m 9.407038,-0.12486 c -0.24503,-0.12546 -0.50047,-0.31497 -0.56765,-0.42115 -0.0672,-0.10618 -0.123069,-1.77554 -0.1242,-3.7097 l -0.002,-3.51665 0.391149,-0.43777 0.39114,-0.43777 h 3.57427 3.57428 l 0.39115,0.43777 0.39114,0.43777 v 3.56341 3.5634 l -0.41632,0.38891 -0.41632,0.3889 -3.37054,-0.0145 c -2.89048,-0.0124 -3.434,-0.047 -3.81605,-0.24261 z m -31.046938,-8.06682 c 0.43747,-0.0808 0.82556,-0.19373 0.86242,-0.25085 0.0369,-0.0571 0.36864,-0.26131 0.73727,-0.45375 0.50664,-0.26448 3.96172,-3.64705 14.15476,-13.85773 7.41649,-7.42931 13.61127,-13.6888 13.766169,-13.90998 l 0.28164,-0.40214 13.98182,13.95691 c 7.69001,7.67631 14.26568,14.14686 14.6126,14.37902 1.12582,0.75338 2.43968,0.82316 3.82148,0.20298 0.96228,-0.43189 1.66939,-1.11043 2.03731,-1.955 0.17074,-0.39193 0.36705,-0.82241 0.43624,-0.95663 0.25316,-0.49107 0.14495,-1.73022 -0.21567,-2.46979 -0.18856,-0.3867 -0.34284,-0.77779 -0.34284,-0.86907 0,-0.0913 -7.34417,-7.50867 -16.32037,-16.48308 -16.879961,-16.87656 -16.855111,-16.85315 -17.900791,-16.86138 -0.20568,-0.002 -0.627929,0.12356 -0.938339,0.27819 -0.38729,0.19292 -5.67915,5.39757 -16.86645,16.58847 -13.2146,13.21887 -16.36227,16.43428 -16.61988,16.97758 -0.22526,0.47508 -0.33234,0.97358 -0.36774,1.71199 -0.0443,0.92432 -0.008,1.12749 0.3222,1.80235 0.20467,0.41833 0.61958,1.00517 0.92203,1.3041 0.78555,0.7764 1.515,1.1456 2.76483,1.39939 0.0418,0.008 0.43385,-0.0507 0.871311,-0.13158 z"
       id="path970"
       inkscape:connector-curvature="0" />
  </g>
</svg>
