<?xml version="1.0" encoding="UTF-8" standalone="no"?>
<!-- Created with Inkscape (http://www.inkscape.org/) -->

<svg
   xmlns:dc="http://purl.org/dc/elements/1.1/"
   xmlns:cc="http://creativecommons.org/ns#"
   xmlns:rdf="http://www.w3.org/1999/02/22-rdf-syntax-ns#"
   xmlns:svg="http://www.w3.org/2000/svg"
   xmlns="http://www.w3.org/2000/svg"
   xmlns:sodipodi="http://sodipodi.sourceforge.net/DTD/sodipodi-0.dtd"
   xmlns:inkscape="http://www.inkscape.org/namespaces/inkscape"
   width="680"
   height="160"
   id="svg2"
   version="1.1"
   inkscape:version="0.92.4 (5da689c313, 2019-01-14)"
   sodipodi:docname="logo_Frugal_full.svg"
   inkscape:export-filename="C:\Hugo\Sites\FrugalGit-main\static\img\logo.png"
   inkscape:export-xdpi="96"
   inkscape:export-ydpi="96">
  <defs
     id="defs4" />
  <sodipodi:namedview
     id="base"
     pagecolor="#ffffff"
     bordercolor="#666666"
     borderopacity="1.0"
     inkscape:pageopacity="0.0"
     inkscape:pageshadow="2"
     inkscape:zoom="1.1340097"
     inkscape:cx="348.56673"
     inkscape:cy="102.46971"
     inkscape:document-units="px"
     inkscape:current-layer="layer1"
     showgrid="false"
     inkscape:window-width="1388"
     inkscape:window-height="888"
     inkscape:window-x="2119"
     inkscape:window-y="442"
     inkscape:window-maximized="0"
     units="mm"
     showguides="true"
     inkscape:guide-bbox="true" />
  <metadata
     id="metadata7">
    <rdf:RDF>
      <cc:Work
         rdf:about="">
        <dc:format>image/svg+xml</dc:format>
        <dc:type
           rdf:resource="http://purl.org/dc/dcmitype/StillImage" />
        <dc:title></dc:title>
      </cc:Work>
    </rdf:RDF>
  </metadata>
  <g
     inkscape:groupmode="layer"
     id="layer2"
     inkscape:label="Bottom"
     transform="translate(0,-584.09449)" />
  <g
     inkscape:label="Layer 1"
     inkscape:groupmode="layer"
     id="layer1"
     transform="translate(0,-892.36218)">
    <g
       aria-label="FRUGAL"
       transform="matrix(1.0091221,0,0,0.99096034,-37.6525,28.345984)"
       style="font-style:normal;font-weight:normal;font-size:13.47967625px;line-height:0%;font-family:sans-serif;letter-spacing:0px;word-spacing:0px;fill:#008000;fill-opacity:1;stroke:none;stroke-width:1.12330639"
       id="text3840-74">
      <path
         id="path112"
         style="font-style:normal;font-variant:normal;font-weight:normal;font-stretch:normal;font-size:143.78321838px;line-height:150%;font-family:Comfortaa;-inkscape-font-specification:Comfortaa;letter-spacing:5px;fill:#008000;fill-opacity:1;stroke-width:1.12330639"
         d="m 657.01449,872.68025 h 1.0531 q 4.77406,0.98289 4.77406,4.2124 V 962.966 h 43.3175 q 4.28261,0 5.05488,5.54632 -1.40413,4.77406 -5.05488,4.77406 h -48.583 q -4.07199,0 -5.05488,-5.33571 V 878.5074 q 0.63186,-5.82715 4.49322,-5.82715 z m -57.37414,0.35103 q 4.84426,0 7.16108,9.75873 31.87382,82.98426 32.15464,84.95004 v 0.77227 q 0,3.93158 -4.98467,4.77406 h -0.28082 q -4.63364,0 -6.59943,-8.98645 L 615.22623,933.47921 H 584.3353 l -14.46257,38.19241 q -2.1062,1.61476 -3.72095,1.61476 h -0.56165 q -4.98468,-0.91269 -4.98468,-4.98468 v -0.28082 l 8.98645,-24.2915 q 23.51923,-61.29041 25.55523,-68.03025 2.38702,-2.66785 4.49322,-2.66785 z m 0,20.0791 -11.09265,30.04845 h 22.67675 V 922.878 l -11.30327,-29.76762 z m -82.43794,-20.64075 q 16.07732,0 28.92514,8.98645 1.33392,1.82537 1.33392,3.44013 v 0.28082 q 0,4.07199 -5.3357,5.05488 -0.84248,0 -10.32038,-4.49323 -6.17819,-2.38702 -11.93513,-2.38702 h -4.28261 q -14.8136,0 -28.36348,14.32216 -8.77583,12.00533 -8.77583,24.64253 v 1.0531 q 0,20.64075 19.0962,33.69919 9.96935,5.61653 19.93869,5.61653 h 1.0531 q 9.82893,0 19.65786,-5.3357 v -24.15109 h -19.16641 q -4.98467,-0.84248 -4.98467,-5.05488 v -0.21062 q 0.84248,-5.05488 4.98467,-5.05488 h 24.71274 q 3.93157,0 4.77405,5.05488 v 29.41659 q 0,6.45901 -3.1593,8.00356 -13.54988,7.93335 -26.32749,7.93335 h -1.54455 q -24.92336,0 -41.70275,-23.09799 -7.93335,-13.05844 -7.93335,-27.31039 0,-25.3446 22.53634,-41.91337 13.83071,-8.495 26.81894,-8.495 z m -132.00384,0.21062 h 1.0531 q 4.77405,0.98289 4.77405,4.2124 v 56.58656 q 0,18.25373 10.39059,24.43191 6.52922,5.05488 14.60298,5.05488 15.51567,0 23.37881,-15.93691 1.61476,-4.98467 1.61476,-10.39058 v -58.97359 q 0.84248,-4.98467 4.77405,-4.98467 h 0.77227 q 4.77405,0.91268 4.77405,4.77405 v 61.85206 q 0,15.79649 -15.16463,27.59121 -9.54811,6.38881 -19.37704,6.38881 h -1.82537 q -16.49856,0 -28.71452,-16.21774 -5.54632,-8.70562 -5.54632,-21.48323 V 878.5074 q 0.63186,-5.82715 4.49322,-5.82715 z m -73.38127,-0.14042 h 22.1151 q 14.11153,0 23.09798,14.88381 2.87848,5.75695 2.87848,12.00534 v 1.0531 q 0,13.90092 -13.54989,22.81716 l -2.59764,1.33393 q 24.15108,41.63254 24.15108,42.54523 v 1.33392 q 0,3.93158 -5.05487,4.77406 h -0.28083 q -3.79116,0 -7.93335,-9.05666 l -21.83427,-37.20953 h -15.09443 v 41.49213 q 0,3.93158 -5.05488,4.77406 h -0.28083 q -4.07198,0 -5.05487,-5.33571 v -89.51348 q 0.63186,-5.89736 4.49322,-5.89736 z m 5.89736,10.10976 v 34.05023 h 15.09443 q 12.56699,0 16.49856,-13.54989 l 0.28083,-2.1764 v -2.1062 q 0,-9.96935 -11.16286,-15.16464 -3.1593,-1.0531 -9.82893,-1.0531 z m -81.87628,-10.6012 1.33393,0.28082 h 52.23374 l 1.0531,-0.28082 q 4.56343,0 5.33571,5.82715 -1.0531,4.84426 -5.82715,4.84426 h -48.79363 v 35.9458 h 31.94403 l 3.79116,-0.28082 q 3.58054,0 4.77405,5.3357 0,3.51033 -4.2826,5.33571 l -5.33571,-0.28083 h -30.89093 v 37.84139 l 0.28083,1.61475 q -1.19351,5.05488 -5.05488,5.05488 h -0.56165 q -5.05488,-0.91269 -5.05488,-5.05488 v -90.84741 q 0.77227,-5.05488 5.05488,-5.05488 z"
         inkscape:connector-curvature="0" />
    </g>
    <g
       aria-label="CONSULTANCY / DESIGN"
       style="font-style:normal;font-weight:normal;font-size:13.05568123px;line-height:0%;font-family:sans-serif;letter-spacing:0.54398674px;word-spacing:0px;fill:#008000;fill-opacity:1;stroke:none;stroke-width:1.08797348"
       id="text3840-7-9"
       transform="translate(-36.3525,28.345984)">
      <path
         d="m 247.62395,1024.0157 c 3.82967,0 7.31118,-1.262 10.05288,-3.3944 1.04445,-0.8269 1.21853,-2.3936 0.43518,-3.4815 -0.87037,-1.0445 -2.48058,-1.2186 -3.48151,-0.4788 -1.95835,1.5667 -4.30838,2.3936 -7.00655,2.3936 -3.00281,0 -5.78802,-1.2185 -7.83341,-3.1334 -1.95835,-1.9148 -3.17688,-4.613 -3.17688,-7.5723 0,-2.9593 1.21853,-5.5704 3.17688,-7.5723 2.04539,-1.9148 4.8306,-3.13333 7.83341,-3.13333 2.69817,0 5.09172,0.82686 7.00655,2.39353 1.00093,0.7834 2.61114,0.6093 3.48151,-0.4787 0.78335,-1.08797 0.60927,-2.61113 -0.43518,-3.48151 -2.7417,-2.13243 -6.22321,-3.39448 -10.05288,-3.39448 -8.70379,0.0435 -15.92793,7.05007 -15.97145,15.66679 0.0435,8.6603 7.26766,15.6668 15.97145,15.6668 z"
         style="font-style:normal;font-variant:normal;font-weight:bold;font-stretch:normal;font-size:43.51893997px;line-height:0%;font-family:Quicksand;-inkscape-font-specification:'Quicksand Bold';letter-spacing:-2.5px;word-spacing:0px;fill:#008000;fill-opacity:1;stroke-width:1.08797348"
         id="path115"
         inkscape:connector-curvature="0" />
      <path
         d="m 276.84722,992.68211 c -4.17782,0 -8.00749,1.78428 -10.66214,4.65653 -2.69818,2.87226 -4.30838,6.70196 -4.30838,11.01026 0,4.3084 1.6102,8.1816 4.30838,11.0103 2.65465,2.8288 6.48432,4.6565 10.66214,4.6565 0,0 0,0 0,0 4.00374,0 7.8334,-1.8277 10.40102,-4.6565 2.69818,-2.8287 4.39542,-6.7019 4.39542,-11.0103 0,-4.3083 -1.69724,-8.138 -4.39542,-11.01026 -2.56762,-2.87225 -6.39728,-4.65653 -10.40102,-4.65653 z m 6.87599,23.23909 c -1.8278,1.9584 -4.26486,3.1334 -6.87599,3.1334 -2.78522,0 -5.22228,-1.175 -7.05007,-3.1334 -1.8278,-1.8713 -2.95929,-4.613 -2.95929,-7.5723 0,-2.9593 1.13149,-5.701 2.95929,-7.6158 1.82779,-1.95834 4.26485,-3.08983 7.05007,-3.08983 2.61113,0 5.04819,1.13149 6.87599,3.08983 1.78427,1.9148 2.95929,4.6565 2.95929,7.6158 0,2.9593 -1.17502,5.701 -2.95929,7.5723 z"
         style="font-style:normal;font-variant:normal;font-weight:bold;font-stretch:normal;font-size:43.51893997px;line-height:0%;font-family:Quicksand;-inkscape-font-specification:'Quicksand Bold';letter-spacing:-2.5px;word-spacing:0px;fill:#008000;fill-opacity:1;stroke-width:1.08797348"
         id="path117"
         inkscape:connector-curvature="0" />
      <path
         d="m 301.382,1003.5618 13.92606,19.3225 c 0.0435,0.087 0.13055,0.174 0.21759,0.2611 0.43519,0.5222 1.08798,0.8703 1.78428,0.8703 1.30557,0 2.39354,-1.0879 2.39354,-2.3935 v -25.2845 c 0,-1.26205 -1.08797,-2.35002 -2.39354,-2.35002 -1.30557,0 -2.35002,1.08797 -2.35002,2.35002 v 17.9298 l -14.05662,-19.45296 c -0.73982,-1.04446 -2.21947,-1.26205 -3.30744,-0.52223 -0.65279,0.47871 -1.00094,1.26205 -0.95742,2.00187 0,0.0435 0,0.0435 0,0.0435 v 25.28452 c 0,1.3056 1.04446,2.3935 2.39354,2.3935 1.26205,0 2.35003,-1.0879 2.35003,-2.3935 z"
         style="font-style:normal;font-variant:normal;font-weight:bold;font-stretch:normal;font-size:43.51893997px;line-height:0%;font-family:Quicksand;-inkscape-font-specification:'Quicksand Bold';letter-spacing:-2.5px;word-spacing:0px;fill:#008000;fill-opacity:1;stroke-width:1.08797348"
         id="path119"
         inkscape:connector-curvature="0" />
      <path
         d="m 327.05983,1019.6203 c 2.48058,1.9584 6.44081,4.3084 11.14085,4.3519 3.08985,0 5.91858,-0.9139 8.051,-2.4806 2.17595,-1.5666 3.74263,-3.9602 3.74263,-6.7454 0,-1.3491 -0.39167,-2.6546 -1.04445,-3.6991 -1.00094,-1.6102 -2.56762,-2.7417 -4.3519,-3.6121 -1.74075,-0.8268 -3.78614,-1.3926 -6.00561,-1.8278 h -0.087 c -2.35002,-0.4352 -4.30837,-1.1315 -5.43986,-1.9148 -0.56575,-0.3917 -0.95742,-0.7833 -1.17502,-1.1315 -0.21759,-0.3481 -0.30463,-0.6963 -0.30463,-1.2185 0,-0.9139 0.47871,-1.87134 1.65372,-2.74171 1.17501,-0.87038 2.91577,-1.47965 4.87412,-1.47965 2.65466,0 4.78709,1.30557 7.00655,2.78521 1.04446,0.69635 2.43706,0.39165 3.08985,-0.65278 0.6963,-1.00094 0.39167,-2.39354 -0.60927,-3.08984 -2.21946,-1.43613 -5.30931,-3.48152 -9.48713,-3.48152 -2.82873,0 -5.48338,0.82686 -7.52877,2.3065 -2.00188,1.47965 -3.48152,3.74263 -3.48152,6.35379 0,1.3055 0.34815,2.5241 1.00094,3.5685 0.95741,1.5232 2.39354,2.6112 4.04726,3.3945 1.65372,0.7834 3.56855,1.3056 5.61394,1.6972 h 0.087 c 2.56762,0.4788 4.70004,1.2186 5.96209,2.0454 0.65279,0.4352 1.04446,0.8704 1.30557,1.3056 0.26112,0.4352 0.39167,0.8269 0.39167,1.3926 0,1.088 -0.56574,2.176 -1.87131,3.1334 -1.30557,0.9574 -3.26392,1.6102 -5.43987,1.6102 -3.08984,0.044 -6.39728,-1.7843 -8.31212,-3.351 -0.95741,-0.7833 -2.39354,-0.6528 -3.17688,0.3047 -0.73982,0.9574 -0.60926,2.3935 0.34815,3.1768 z"
         style="font-style:normal;font-variant:normal;font-weight:bold;font-stretch:normal;font-size:43.51893997px;line-height:0%;font-family:Quicksand;-inkscape-font-specification:'Quicksand Bold';letter-spacing:-2.5px;word-spacing:0px;fill:#008000;fill-opacity:1;stroke-width:1.08797348"
         id="path121"
         inkscape:connector-curvature="0" />
      <path
         d="m 379.43585,1011.4388 v -15.49277 c 0,-1.34909 -1.04445,-2.39354 -2.39354,-2.39354 -1.34909,0 -2.43706,1.04445 -2.43706,2.39354 v 15.49277 c 0,4.2648 -3.43799,7.7463 -7.74637,7.7463 -4.26486,0 -7.74637,-3.4815 -7.74637,-7.7463 v -15.49277 c 0,-1.34909 -1.13149,-2.39354 -2.43706,-2.39354 -1.34909,0 -2.39354,1.04445 -2.39354,2.39354 v 15.49277 c 0,6.9195 5.57042,12.5769 12.57697,12.5769 6.96303,0 12.57697,-5.6574 12.57697,-12.5769 z"
         style="font-style:normal;font-variant:normal;font-weight:bold;font-stretch:normal;font-size:43.51893997px;line-height:0%;font-family:Quicksand;-inkscape-font-specification:'Quicksand Bold';letter-spacing:-2.5px;word-spacing:0px;fill:#008000;fill-opacity:1;stroke-width:1.08797348"
         id="path123"
         inkscape:connector-curvature="0" />
      <path
         d="m 387.53612,1024.0157 c 0,0 0,0 0.0435,0 0,0 0,0 0.087,0 h 14.10013 c 1.26205,0 2.39354,-1.0879 2.39354,-2.3935 0,-1.3491 -1.13149,-2.4371 -2.39354,-2.4371 h -11.79363 v -23.23907 c 0,-1.30557 -1.08797,-2.39354 -2.43706,-2.39354 -1.34909,0 -2.39354,1.08797 -2.39354,2.39354 v 25.67617 c 0,1.3056 1.04445,2.3935 2.39354,2.3935 z"
         style="font-style:normal;font-variant:normal;font-weight:bold;font-stretch:normal;font-size:43.51893997px;line-height:0%;font-family:Quicksand;-inkscape-font-specification:'Quicksand Bold';letter-spacing:-2.5px;word-spacing:0px;fill:#008000;fill-opacity:1;stroke-width:1.08797348"
         id="path125"
         inkscape:connector-curvature="0" />
      <path
         d="m 423.80673,995.94603 c 0,-1.34909 -1.08798,-2.39354 -2.39355,-2.39354 H 402.8306 c -1.34909,0 -2.39354,1.04445 -2.39354,2.39354 0,1.30557 1.04445,2.43706 2.39354,2.43706 h 6.87599 v 23.23911 c 0,1.3491 1.08797,2.3935 2.39354,2.3935 1.34909,0 2.39354,-1.0444 2.39354,-2.3935 v -23.23911 h 6.91951 c 1.30557,0 2.39355,-1.13149 2.39355,-2.43706 z"
         style="font-style:normal;font-variant:normal;font-weight:bold;font-stretch:normal;font-size:43.51893997px;line-height:0%;font-family:Quicksand;-inkscape-font-specification:'Quicksand Bold';letter-spacing:-2.5px;word-spacing:0px;fill:#008000;fill-opacity:1;stroke-width:1.08797348"
         id="path127"
         inkscape:connector-curvature="0" />
      <path
         d="m 442.01018,1022.4926 c 0.34815,0.9574 1.26205,1.5231 2.21947,1.5231 0.30463,0 0.60926,-0.043 0.82686,-0.1305 1.26205,-0.4787 1.87131,-1.8713 1.43612,-3.1334 l -9.61768,-25.63263 c -0.39167,-0.95742 -1.30557,-1.56668 -2.30651,-1.52316 -0.95741,-0.0435 -1.91483,0.56574 -2.3065,1.52316 l -9.61769,25.63263 c -0.43519,1.2621 0.17408,2.6547 1.43613,3.1334 0.26111,0.087 0.52222,0.1305 0.82686,0.1305 0.95741,0 1.87131,-0.5657 2.26298,-1.5231 l 2.13243,-5.6575 h 10.5751 z m -10.96677,-10.4446 3.52503,-9.3565 3.52504,9.3565 z"
         style="font-style:normal;font-variant:normal;font-weight:bold;font-stretch:normal;font-size:43.51893997px;line-height:0%;font-family:Quicksand;-inkscape-font-specification:'Quicksand Bold';letter-spacing:-2.5px;word-spacing:0px;fill:#008000;fill-opacity:1;stroke-width:1.08797348"
         id="path129"
         inkscape:connector-curvature="0" />
      <path
         d="m 454.7629,1003.5618 13.92606,19.3225 c 0.0435,0.087 0.13056,0.174 0.21759,0.2611 0.43519,0.5222 1.08798,0.8703 1.78428,0.8703 1.30557,0 2.39354,-1.0879 2.39354,-2.3935 v -25.2845 c 0,-1.26205 -1.08797,-2.35002 -2.39354,-2.35002 -1.30557,0 -2.35002,1.08797 -2.35002,2.35002 v 17.9298 l -14.05662,-19.45296 c -0.73982,-1.04446 -2.21947,-1.26205 -3.30744,-0.52223 -0.65278,0.47871 -1.00094,1.26205 -0.95742,2.00187 0,0.0435 0,0.0435 0,0.0435 v 25.28452 c 0,1.3056 1.04446,2.3935 2.39354,2.3935 1.26205,0 2.35003,-1.0879 2.35003,-2.3935 z"
         style="font-style:normal;font-variant:normal;font-weight:bold;font-stretch:normal;font-size:43.51893997px;line-height:0%;font-family:Quicksand;-inkscape-font-specification:'Quicksand Bold';letter-spacing:-2.5px;word-spacing:0px;fill:#008000;fill-opacity:1;stroke-width:1.08797348"
         id="path131"
         inkscape:connector-curvature="0" />
      <path
         d="m 495.67235,1024.0157 c 3.82967,0 7.31118,-1.262 10.05288,-3.3944 1.04445,-0.8269 1.21853,-2.3936 0.43519,-3.4815 -0.87038,-1.0445 -2.48058,-1.2186 -3.48152,-0.4788 -1.95835,1.5667 -4.30837,2.3936 -7.00655,2.3936 -3.00281,0 -5.78802,-1.2185 -7.83341,-3.1334 -1.95835,-1.9148 -3.17688,-4.613 -3.17688,-7.5723 0,-2.9593 1.21853,-5.5704 3.17688,-7.5723 2.04539,-1.9148 4.8306,-3.13333 7.83341,-3.13333 2.69818,0 5.09172,0.82686 7.00655,2.39353 1.00094,0.7834 2.61114,0.6093 3.48152,-0.4787 0.78334,-1.08797 0.60926,-2.61113 -0.43519,-3.48151 -2.7417,-2.13243 -6.22321,-3.39448 -10.05288,-3.39448 -8.70379,0.0435 -15.92793,7.05007 -15.97145,15.66679 0.0435,8.6603 7.26766,15.6668 15.97145,15.6668 z"
         style="font-style:normal;font-variant:normal;font-weight:bold;font-stretch:normal;font-size:43.51893997px;line-height:0%;font-family:Quicksand;-inkscape-font-specification:'Quicksand Bold';letter-spacing:-2.5px;word-spacing:0px;fill:#008000;fill-opacity:1;stroke-width:1.08797348"
         id="path133"
         inkscape:connector-curvature="0" />
      <path
         d="m 531.9457,994.33583 c -1.04446,-0.78334 -2.5241,-0.56575 -3.35096,0.52223 l -7.44174,10.18344 -7.44174,-10.18344 c -0.73982,-1.08798 -2.21947,-1.30557 -3.30744,-0.52223 -1.08797,0.78334 -1.30557,2.26298 -0.47871,3.30744 l 8.83435,12.22883 v 11.7501 c 0,1.3491 1.13149,2.3935 2.39354,2.3935 1.34909,0 2.39354,-1.0444 2.39354,-2.3935 v -11.7501 l 8.92138,-12.22883 c 0.73983,-1.04446 0.52223,-2.5241 -0.52222,-3.30744 z"
         style="font-style:normal;font-variant:normal;font-weight:bold;font-stretch:normal;font-size:43.51893997px;line-height:0%;font-family:Quicksand;-inkscape-font-specification:'Quicksand Bold';letter-spacing:-2.5px;word-spacing:0px;fill:#008000;fill-opacity:1;stroke-width:1.08797348"
         id="path135"
         inkscape:connector-curvature="0" />
      <path
         d="m 546.10694,1023.8417 c 0.26112,0.1305 0.60927,0.174 0.87038,0.174 0.9139,0 1.8278,-0.5222 2.21947,-1.4361 l 10.66214,-25.41504 c 0.52222,-1.17501 -0.0435,-2.61114 -1.21853,-3.08984 -1.26205,-0.52223 -2.65466,0.0435 -3.17689,1.26205 l -10.66214,25.37153 c -0.52222,1.2185 0.0435,2.6547 1.30557,3.1334 z"
         style="font-style:normal;font-variant:normal;font-weight:bold;font-stretch:normal;font-size:43.51893997px;line-height:0%;font-family:Quicksand;-inkscape-font-specification:'Quicksand Bold';letter-spacing:-2.5px;word-spacing:0px;fill:#008000;fill-opacity:1;stroke-width:1.08797348"
         id="path137"
         inkscape:connector-curvature="0" />
      <path
         d="m 574.47103,1024.0157 c 0,0 0,0 0,0 0,0 0,0 0,0 h 5.13523 c 8.39916,0 15.18811,-6.8324 15.18811,-15.2751 0,-8.3556 -6.78895,-15.18811 -15.18811,-15.18811 h -5.13523 c 0,0 0,0 0,0 0,0 0,0 0,0 -1.34909,0 -2.39355,1.04445 -2.39355,2.39354 v 25.67617 c 0,1.3056 1.04446,2.3935 2.39355,2.3935 z m 2.43706,-25.63261 h 2.69817 c 5.7445,0 10.35751,4.65651 10.35751,10.35751 0,5.788 -4.61301,10.401 -10.35751,10.4445 h -2.69817 z"
         style="font-style:normal;font-variant:normal;font-weight:bold;font-stretch:normal;font-size:43.51893997px;line-height:0%;font-family:Quicksand;-inkscape-font-specification:'Quicksand Bold';letter-spacing:-2.5px;word-spacing:0px;fill:#008000;fill-opacity:1;stroke-width:1.08797348"
         id="path139"
         inkscape:connector-curvature="0" />
      <path
         d="m 601.0403,1024.0157 c 0,0 0.0435,-0.043 0.0435,-0.043 0,0 0,0.043 0.087,0.043 h 14.10013 c 1.26205,0 2.39355,-1.0879 2.39355,-2.3935 0,-1.3491 -1.1315,-2.4371 -2.39355,-2.4371 H 603.4773 v -8.0074 h 10.13991 c 1.30557,0 2.39355,-1.088 2.39355,-2.4371 0,-1.2621 -1.08798,-2.3935 -2.39355,-2.3935 H 603.4773 v -7.96401 h 11.79363 c 1.26205,0 2.39355,-1.08797 2.39355,-2.43706 0,-1.34909 -1.1315,-2.39354 -2.39355,-2.39354 H 601.1708 c -0.087,0 -0.087,0 -0.087,0 0,0 -0.0435,0 -0.0435,0 -1.34909,0 -2.39354,1.04445 -2.39354,2.39354 v 25.67617 c 0,1.3056 1.04445,2.3935 2.39354,2.3935 z"
         style="font-style:normal;font-variant:normal;font-weight:bold;font-stretch:normal;font-size:43.51893997px;line-height:0%;font-family:Quicksand;-inkscape-font-specification:'Quicksand Bold';letter-spacing:-2.5px;word-spacing:0px;fill:#008000;fill-opacity:1;stroke-width:1.08797348"
         id="path141"
         inkscape:connector-curvature="0" />
      <path
         d="m 621.37688,1019.6203 c 2.48058,1.9584 6.4408,4.3084 11.14085,4.3519 3.08984,0 5.91857,-0.9139 8.051,-2.4806 2.17595,-1.5666 3.74263,-3.9602 3.74263,-6.7454 0,-1.3491 -0.39167,-2.6546 -1.04445,-3.6991 -1.00094,-1.6102 -2.56762,-2.7417 -4.3519,-3.6121 -1.74076,-0.8268 -3.78615,-1.3926 -6.00561,-1.8278 h -0.087 c -2.35002,-0.4352 -4.30837,-1.1315 -5.43987,-1.9148 -0.56574,-0.3917 -0.95741,-0.7833 -1.17501,-1.1315 -0.21759,-0.3481 -0.30463,-0.6963 -0.30463,-1.2185 0,-0.9139 0.47871,-1.87134 1.65372,-2.74171 1.17501,-0.87038 2.91577,-1.47965 4.87412,-1.47965 2.65466,0 4.78708,1.30557 7.00655,2.78521 1.04445,0.69635 2.43706,0.39165 3.08984,-0.65278 0.69631,-1.00094 0.39167,-2.39354 -0.60926,-3.08984 -2.21947,-1.43613 -5.30931,-3.48152 -9.48713,-3.48152 -2.82873,0 -5.48339,0.82686 -7.52878,2.3065 -2.00187,1.47965 -3.48151,3.74263 -3.48151,6.35379 0,1.3055 0.34815,2.5241 1.00093,3.5685 0.95742,1.5232 2.39355,2.6112 4.04727,3.3945 1.65371,0.7834 3.56855,1.3056 5.61394,1.6972 h 0.087 c 2.56761,0.4788 4.70004,1.2186 5.96209,2.0454 0.65279,0.4352 1.04446,0.8704 1.30557,1.3056 0.26111,0.4352 0.39167,0.8269 0.39167,1.3926 0,1.088 -0.56575,2.176 -1.87131,3.1334 -1.30557,0.9574 -3.26393,1.6102 -5.43987,1.6102 -3.08985,0.044 -6.39729,-1.7843 -8.31212,-3.351 -0.95742,-0.7833 -2.39354,-0.6528 -3.17688,0.3047 -0.73982,0.9574 -0.60927,2.3935 0.34815,3.1768 z"
         style="font-style:normal;font-variant:normal;font-weight:bold;font-stretch:normal;font-size:43.51893997px;line-height:0%;font-family:Quicksand;-inkscape-font-specification:'Quicksand Bold';letter-spacing:-2.5px;word-spacing:0px;fill:#008000;fill-opacity:1;stroke-width:1.08797348"
         id="path143"
         inkscape:connector-curvature="0" />
      <path
         d="m 648.86005,1021.6222 c 0,1.3491 1.04446,2.3935 2.39354,2.3935 1.30557,0 2.43706,-1.0444 2.43706,-2.3935 v -25.67617 c 0,-1.34909 -1.13149,-2.39354 -2.43706,-2.39354 -1.34908,0 -2.39354,1.04445 -2.39354,2.39354 z"
         style="font-style:normal;font-variant:normal;font-weight:bold;font-stretch:normal;font-size:43.51893997px;line-height:0%;font-family:Quicksand;-inkscape-font-specification:'Quicksand Bold';letter-spacing:-2.5px;word-spacing:0px;fill:#008000;fill-opacity:1;stroke-width:1.08797348"
         id="path145"
         inkscape:connector-curvature="0" />
      <path
         d="m 674.0245,1024.0157 c 3.6991,0 7.1371,-1.262 9.87879,-3.3944 0.43519,-0.3047 0.69631,-0.6528 0.82686,-1.0445 0,0 0,-0.043 0,-0.043 0.0435,-0.087 0.0435,-0.1306 0.087,-0.2176 0.0435,-0.2611 0.13056,-0.4352 0.13056,-0.7398 v -9.6177 c 0,-1.3926 -1.13149,-2.4371 -2.5241,-2.4371 0,0 0,0 -0.0435,0 0,0 0,0 -0.0435,0 h -8.57323 c -1.34909,0 -2.48058,1.0445 -2.48058,2.4371 0,1.3491 1.13149,2.4806 2.48058,2.4806 h 6.22321 v 5.9621 c -1.74076,1.0009 -3.78615,1.6537 -5.96209,1.6537 -3.13337,0 -5.87506,-1.175 -7.83341,-3.1769 -2.04539,-1.9583 -3.26392,-4.613 -3.26392,-7.4853 0,-2.9592 1.21853,-5.6139 3.26392,-7.5722 1.95835,-2.00192 4.70004,-3.17693 7.83341,-3.17693 2.61113,0 5.00467,0.9139 6.87599,2.35002 1.08797,0.87041 2.69817,0.65281 3.52503,-0.39167 0.82686,-1.08797 0.65279,-2.69817 -0.47871,-3.52503 -2.69817,-2.13243 -6.22321,-3.39448 -9.92231,-3.39448 -8.83435,0 -16.05849,6.96303 -16.05849,15.71029 0,8.7038 7.22414,15.6233 16.05849,15.6233 0,0 0,0 0,0 z"
         style="font-style:normal;font-variant:normal;font-weight:bold;font-stretch:normal;font-size:43.51893997px;line-height:0%;font-family:Quicksand;-inkscape-font-specification:'Quicksand Bold';letter-spacing:-2.5px;word-spacing:0px;fill:#008000;fill-opacity:1;stroke-width:1.08797348"
         id="path147"
         inkscape:connector-curvature="0" />
      <path
         d="m 697.04633,1003.5618 13.92606,19.3225 c 0.0435,0.087 0.13056,0.174 0.2176,0.2611 0.43518,0.5222 1.08797,0.8703 1.78427,0.8703 1.30557,0 2.39354,-1.0879 2.39354,-2.3935 v -25.2845 c 0,-1.26205 -1.08797,-2.35002 -2.39354,-2.35002 -1.30557,0 -2.35002,1.08797 -2.35002,2.35002 v 17.9298 l -14.05662,-19.45296 c -0.73982,-1.04446 -2.21946,-1.26205 -3.30744,-0.52223 -0.65278,0.47871 -1.00093,1.26205 -0.95741,2.00187 0,0.0435 0,0.0435 0,0.0435 v 25.28452 c 0,1.3056 1.04445,2.3935 2.39354,2.3935 1.26205,0 2.35002,-1.0879 2.35002,-2.3935 z"
         style="font-style:normal;font-variant:normal;font-weight:bold;font-stretch:normal;font-size:43.51893997px;line-height:0%;font-family:Quicksand;-inkscape-font-specification:'Quicksand Bold';letter-spacing:-2.5px;word-spacing:0px;fill:#008000;fill-opacity:1;stroke-width:1.08797348"
         id="path149"
         inkscape:connector-curvature="0" />
    </g>
    <path
       style="fill:#b4cd37;fill-opacity:1;fill-rule:evenodd;stroke:none"
       d="m 96.445879,909.38156 c -22.06421,-22.0641 -57.833508,-22.0641 -79.897725,10e-5 -22.0642055,22.06428 -22.0642055,57.83356 0,79.89777 8.661049,8.66114 19.447178,13.91787 30.674629,15.77927 -2.760532,-17.27853 2.507705,-35.59812 15.826392,-48.9168 13.403064,-13.40316 31.871974,-18.65983 49.246615,-15.77923 -1.81407,-11.3422 -7.10675,-22.23787 -15.849911,-30.98111 z"
       id="path2985"
       inkscape:connector-curvature="0" />
    <path
       inkscape:connector-curvature="0"
       style="fill:#a4d5da;fill-opacity:1;fill-rule:evenodd;stroke:none"
       d="m 63.08221,1035.8136 c 22.064319,22.0642 57.83361,22.0642 79.89784,0 22.0642,-22.0643 22.0642,-57.83352 0,-79.89783 -8.66106,-8.66104 -19.44719,-13.91772 -30.67464,-15.77913 2.76053,17.2785 -2.50771,35.59806 -15.826391,48.91666 -13.40308,13.4032 -31.87198,18.6599 -49.246725,15.7792 1.81407,11.3423 7.106853,22.238 15.849916,30.9811 z"
       id="path2985-9" />
    <flowRoot
       xml:space="preserve"
       id="flowRoot2997"
       style="font-style:normal;font-weight:normal;line-height:0.01%;font-family:sans-serif;letter-spacing:0px;word-spacing:0px;fill:#000000;fill-opacity:1;stroke:none"
       transform="translate(0,821.26772)"><flowRegion
         id="flowRegion2999"
         style="font-family:sans-serif"><rect
           id="rect3001"
           width="257.62653"
           height="356.93506"
           x="-60.448681"
           y="-98.494759"
           style="font-family:sans-serif" /></flowRegion><flowPara
         id="flowPara3003"
         style="font-size:40px;line-height:1.25;font-family:sans-serif"> </flowPara></flowRoot>  </g>
</svg>
