<?xml version="1.0" encoding="UTF-8" standalone="no"?>
<!-- Created with Inkscape (http://www.inkscape.org/) -->

<svg
   xmlns:dc="http://purl.org/dc/elements/1.1/"
   xmlns:cc="http://creativecommons.org/ns#"
   xmlns:rdf="http://www.w3.org/1999/02/22-rdf-syntax-ns#"
   xmlns:svg="http://www.w3.org/2000/svg"
   xmlns="http://www.w3.org/2000/svg"
   xmlns:sodipodi="http://sodipodi.sourceforge.net/DTD/sodipodi-0.dtd"
   xmlns:inkscape="http://www.inkscape.org/namespaces/inkscape"
   width="150mm"
   height="150mm"
   viewBox="0 0 150 150"
   version="1.1"
   id="svg8"
   inkscape:version="0.92.4 (5da689c313, 2019-01-14)"
   sodipodi:docname="IconModel.svg">
  <defs
     id="defs2">
    <marker
       style="overflow:visible"
       refY="0"
       refX="0"
       orient="auto"
       id="DistanceX">
      <path
         id="path4546"
         style="stroke:#000000;stroke-width:0.5"
         d="M 3,-3 -3,3 M 0,-5 V 5"
         inkscape:connector-curvature="0" />
    </marker>
    <pattern
       y="0"
       x="0"
       width="8"
       patternUnits="userSpaceOnUse"
       id="Hatch"
       height="8">
      <path
         id="path4549"
         stroke-width="0.25"
         stroke="#000000"
         linecap="square"
         d="M8 4 l-4,4" />
      <path
         id="path4551"
         stroke-width="0.25"
         stroke="#000000"
         linecap="square"
         d="M6 2 l-4,4" />
      <path
         id="path4553"
         stroke-width="0.25"
         stroke="#000000"
         linecap="square"
         d="M4 0 l-4,4" />
    </pattern>
    <symbol
       id="*Model_Space" />
    <symbol
       id="*Paper_Space" />
    <symbol
       id="*Paper_Space0" />
  </defs>
  <sodipodi:namedview
     id="base"
     pagecolor="#ffffff"
     bordercolor="#666666"
     borderopacity="1.0"
     inkscape:pageopacity="0.0"
     inkscape:pageshadow="2"
     inkscape:zoom="0.49497475"
     inkscape:cx="552.48262"
     inkscape:cy="405.16717"
     inkscape:document-units="mm"
     inkscape:current-layer="layer1"
     showgrid="false"
     inkscape:window-width="2209"
     inkscape:window-height="1080"
     inkscape:window-x="-6"
     inkscape:window-y="6"
     inkscape:window-maximized="0" />
  <metadata
     id="metadata5">
    <rdf:RDF>
      <cc:Work
         rdf:about="">
        <dc:format>image/svg+xml</dc:format>
        <dc:type
           rdf:resource="http://purl.org/dc/dcmitype/StillImage" />
        <dc:title />
      </cc:Work>
    </rdf:RDF>
  </metadata>
  <g
     inkscape:label="Layer 1"
     inkscape:groupmode="layer"
     id="layer1"
     transform="translate(0,-147)">
    <path
       style="fill:#008000;stroke-width:0.60000002"
       d="m 61.833317,295.50009 c -26.12903,-4.38025 -49.070408,-24.23886 -57.6764383,-49.92613 -4.80186003,-14.33259 -4.80186003,-32.68825 0,-47.02084 8.6960203,-25.95588 31.6473383,-45.65503 58.2115283,-49.96304 24.10527,-3.90924 47.301623,3.37698 64.664383,20.31176 17.5542,17.1215 25.37845,41.16752 21.3926,65.74522 -4.30801,26.56419 -24.00716,49.51551 -49.963043,58.21153 -10.4178,3.49028 -25.2048,4.55665 -36.62903,2.6415 z m 1.93741,-41.60919 11.394,-5.70301 11.394,5.70301 c 7.92263,3.96549 12.03737,5.703 13.505713,5.703 1.47545,0 5.71999,-1.80586 14.08721,-5.99345 9.69068,-4.84997 12.15079,-6.33245 12.89429,-7.77021 0.73277,-1.41703 0.91879,-4.14224 0.91879,-13.46051 0,-14.46396 0.37379,-13.80028 -10.34183,-18.36224 -4.047,-1.72293 -8.89395,-3.81019 -10.77102,-4.63836 l -3.41286,-1.50577 -0.18714,-10.69285 c -0.16905,-9.65841 -0.30555,-10.85122 -1.411,-12.32994 -0.89886,-1.20238 -4.483703,-3.03894 -13.500003,-6.91624 -6.75188,-2.90352 -12.64715,-5.29068 -13.10059,-5.30478 -1.65862,-0.0516 -25.0208,10.29366 -26.47556,11.72393 -1.47645,1.45159 -1.50292,1.64757 -1.68629,12.48529 l -0.18628,11.01055 -10.52757,4.42729 c -6.423228,2.70125 -11.204418,5.08856 -12.263708,6.12344 l -1.73615,1.69616 v 12.42034 c 0,10.35535 0.15781,12.64565 0.9492,13.77552 1.44422,2.0619 24.008708,13.24014 26.806798,13.27983 1.6902,0.024 5.11359,-1.3983 13.65,-5.671 z m -10.07301,-10.31413 0.16701,-8.24168 4.5,-1.88788 c 2.475,-1.03833 6.4575,-2.72306 8.85,-3.74385 l 4.35,-1.85599 v 7.46951 7.46951 l -9.01701,4.51603 -9.01701,4.51603 z m 49.800003,-0.0197 0.16701,-8.26137 7.2,-3.10519 c 3.96,-1.70786 7.9425,-3.38171 8.85,-3.71969 l 1.65,-0.61451 v 7.46503 7.46503 l -9.01701,4.51604 -9.01702,4.51603 z M 40.509037,225.81615 c -4.70562,-2.02848 -8.47895,-3.91836 -8.38516,-4.19972 0.0938,-0.28136 4.17991,-2.23723 9.08027,-4.34638 l 8.90976,-3.8348 6.37541,2.63702 c 9.50252,3.93046 12.07541,5.12976 12.07541,5.62866 0,0.57036 -17.39469,7.90856 -18.60351,7.84816 -0.49307,-0.0247 -4.74655,-1.70446 -9.45218,-3.73294 z m 49.95569,0.12039 c -4.62,-1.98892 -8.60989,-3.82305 -8.86642,-4.07586 -0.25653,-0.2528 3.75122,-2.25984 8.90611,-4.46008 l 9.37253,-4.00044 9.243893,3.96542 c 5.08414,2.18099 9.23908,4.13708 9.23321,4.34686 -0.0144,0.51409 -17.4502,7.88736 -18.589323,7.86108 -0.495,-0.0114 -4.68,-1.64807 -9.3,-3.63698 z m -12.17099,-16.87741 0.17099,-6.13474 8.7,-3.75093 c 4.785,-2.06301 8.9025,-3.75737 9.15,-3.76525 0.80847,-0.0258 0.52327,11.78193 -0.3,12.42027 -1.0495,0.81375 -16.34492,7.3654 -17.1952,7.3654 -0.49476,0 -0.64721,-1.77869 -0.52579,-6.13475 z m -13.77901,-16.17332 c -5.3625,-2.32624 -9.74365,-4.40107 -9.73588,-4.61073 0.008,-0.20966 2.37026,-1.36958 5.25,-2.5776 2.87973,-1.20802 7.42937,-3.14072 10.11031,-4.29489 l 4.87442,-2.0985 9.82558,4.17559 c 5.40406,2.29657 10.03427,4.38397 10.28935,4.63867 0.44257,0.44191 -19.01588,9.11956 -20.26378,9.03679 -0.33,-0.0219 -4.9875,-1.94308 -10.35,-4.26933 z"
       id="path934"
       inkscape:connector-curvature="0"
       sodipodi:nodetypes="ssssssssscssccssscccscccccccsccsccccccccccccssccccccscccsscsccscccccscsccsscccccsscc" />
  </g>
</svg>
