<?xml version="1.0" encoding="UTF-8" standalone="no"?>
<!-- Created with Inkscape (http://www.inkscape.org/) -->

<svg
   xmlns:dc="http://purl.org/dc/elements/1.1/"
   xmlns:cc="http://creativecommons.org/ns#"
   xmlns:rdf="http://www.w3.org/1999/02/22-rdf-syntax-ns#"
   xmlns:svg="http://www.w3.org/2000/svg"
   xmlns="http://www.w3.org/2000/svg"
   xmlns:sodipodi="http://sodipodi.sourceforge.net/DTD/sodipodi-0.dtd"
   xmlns:inkscape="http://www.inkscape.org/namespaces/inkscape"
   width="150mm"
   height="150mm"
   viewBox="0 0 150 150"
   version="1.1"
   id="svg8"
   inkscape:version="0.92.4 (5da689c313, 2019-01-14)"
   sodipodi:docname="_icon_Coordination.svg">
  <defs
     id="defs2">
    <marker
       style="overflow:visible"
       refY="0"
       refX="0"
       orient="auto"
       id="DistanceX">
      <path
         id="path4546"
         style="stroke:#000000;stroke-width:0.5"
         d="M 3,-3 -3,3 M 0,-5 V 5"
         inkscape:connector-curvature="0" />
    </marker>
    <pattern
       y="0"
       x="0"
       width="8"
       patternUnits="userSpaceOnUse"
       id="Hatch"
       height="8">
      <path
         id="path4549"
         stroke-width="0.25"
         stroke="#000000"
         linecap="square"
         d="M8 4 l-4,4" />
      <path
         id="path4551"
         stroke-width="0.25"
         stroke="#000000"
         linecap="square"
         d="M6 2 l-4,4" />
      <path
         id="path4553"
         stroke-width="0.25"
         stroke="#000000"
         linecap="square"
         d="M4 0 l-4,4" />
    </pattern>
    <symbol
       id="*Model_Space" />
    <symbol
       id="*Paper_Space" />
    <symbol
       id="*Paper_Space0" />
  </defs>
  <sodipodi:namedview
     id="base"
     pagecolor="#ffffff"
     bordercolor="#666666"
     borderopacity="1.0"
     inkscape:pageopacity="0.0"
     inkscape:pageshadow="2"
     inkscape:zoom="0.9899495"
     inkscape:cx="-61.932346"
     inkscape:cy="224.15696"
     inkscape:document-units="mm"
     inkscape:current-layer="layer1"
     showgrid="false"
     inkscape:window-width="1920"
     inkscape:window-height="1080"
     inkscape:window-x="618"
     inkscape:window-y="260"
     inkscape:window-maximized="0" />
  <metadata
     id="metadata5">
    <rdf:RDF>
      <cc:Work
         rdf:about="">
        <dc:format>image/svg+xml</dc:format>
        <dc:type
           rdf:resource="http://purl.org/dc/dcmitype/StillImage" />
        <dc:title />
      </cc:Work>
    </rdf:RDF>
  </metadata>
  <g
     inkscape:label="Layer 1"
     inkscape:groupmode="layer"
     id="layer1"
     transform="translate(0,-147)">
    <path
       style="fill:#008000;stroke-width:0.60000002"
       d="M 64.876142,295.77275 C 45.738035,293.2891 27.166129,282.36926 15.460113,266.71731 7.8440455,256.53397 3.3547135,245.75062 1.4717425,233.11731 c -4.60725,-30.91118 9.9546215,-60.6699 37.1986375,-76.01934 8.354718,-4.7071 15.385098,-7.09871 25.2,-8.57258 45.10388,-6.77312 85.5,27.94955 85.5,73.49192 0,37.46548 -27.8904,69.13639 -64.979076,73.78691 -5.59206,0.70119 -13.9737,0.68767 -19.515162,-0.0315 z m 20.719926,-37.82052 c 9.9978,-3.04537 18.380822,-10.08684 22.780552,-19.13492 3.12409,-6.42475 4.03263,-10.29229 4.01698,-17.1 -0.0388,-16.87426 -11.90513,-31.93995 -28.407746,-36.06688 -5.479794,-1.37037 -16.273368,-0.88212 -21.530292,0.97393 -4.904885,1.73176 -11.845193,6.38236 -15.361917,10.29381 -6.260526,6.96321 -9.230534,14.83521 -9.288677,24.61961 -0.04447,7.48362 0.715539,11.05317 3.623715,17.01956 5.250574,10.77202 15.624155,18.4335 27.996023,20.67663 4.087158,0.74104 11.445318,0.15784 16.171362,-1.28174 z M 66.862544,246.77096 c -9.499801,-3.38889 -15.396443,-10.18892 -17.473492,-20.1505 -2.90094,-13.91298 7.130513,-27.88132 21.890272,-30.4812 9.327396,-1.64299 20.418792,3.50278 25.809198,11.97398 4.354358,6.84303 4.965858,17.32675 1.44876,24.83807 -2.6127,5.57983 -6.539334,9.59144 -12.057936,12.31889 -4.160568,2.05626 -4.955982,2.23704 -10.554324,2.3988 -4.637904,0.13401 -6.758448,-0.0761 -9.062478,-0.89804 z m 8.713548,-11.55651 11.994288,-6.00286 v -13.19714 c 0,-8.01468 -0.22578,-13.19714 -0.574944,-13.19714 -0.316218,0 -5.986218,2.70101 -12.6,6.00224 l -12.025056,6.00224 v 13.19776 c 0,8.4815 0.216456,13.19776 0.605712,13.19776 0.333144,0 6.003144,-2.70128 12.6,-6.00286 z M 68.97038,225.01731 c 0,-2.97 0.140394,-5.4 0.311988,-5.4 0.171594,0 2.798064,1.24858 5.836596,2.77462 l 5.524608,2.77463 -5.086596,2.59524 c -2.797626,1.42738 -5.424096,2.6088 -5.836596,2.62538 -0.546678,0.022 -0.75,-1.4338 -0.75,-5.36987 z"
       id="path858"
       inkscape:connector-curvature="0" />
  </g>
</svg>
