<?xml version="1.0" encoding="UTF-8" standalone="no"?>
<!-- Created with Inkscape (http://www.inkscape.org/) -->

<svg
   xmlns:dc="http://purl.org/dc/elements/1.1/"
   xmlns:cc="http://creativecommons.org/ns#"
   xmlns:rdf="http://www.w3.org/1999/02/22-rdf-syntax-ns#"
   xmlns:svg="http://www.w3.org/2000/svg"
   xmlns="http://www.w3.org/2000/svg"
   xmlns:sodipodi="http://sodipodi.sourceforge.net/DTD/sodipodi-0.dtd"
   xmlns:inkscape="http://www.inkscape.org/namespaces/inkscape"
   width="150mm"
   height="150mm"
   viewBox="0 0 150 150"
   version="1.1"
   id="svg8"
   inkscape:version="0.92.4 (5da689c313, 2019-01-14)"
   sodipodi:docname="Services_EngDesign.svg"
   inkscape:export-filename="C:\Hugo\Sites\FrugalGit-main\static\img\img6.png"
   inkscape:export-xdpi="96"
   inkscape:export-ydpi="96">
  <defs
     id="defs2">
    <marker
       style="overflow:visible"
       refY="0"
       refX="0"
       orient="auto"
       id="DistanceX">
      <path
         id="path4546"
         style="stroke:#000000;stroke-width:0.5"
         d="M 3,-3 -3,3 M 0,-5 V 5"
         inkscape:connector-curvature="0" />
    </marker>
    <pattern
       y="0"
       x="0"
       width="8"
       patternUnits="userSpaceOnUse"
       id="Hatch"
       height="8">
      <path
         id="path4549"
         stroke-width="0.25"
         stroke="#000000"
         linecap="square"
         d="M8 4 l-4,4" />
      <path
         id="path4551"
         stroke-width="0.25"
         stroke="#000000"
         linecap="square"
         d="M6 2 l-4,4" />
      <path
         id="path4553"
         stroke-width="0.25"
         stroke="#000000"
         linecap="square"
         d="M4 0 l-4,4" />
    </pattern>
    <symbol
       id="*Model_Space" />
    <symbol
       id="*Paper_Space" />
    <symbol
       id="*Paper_Space0" />
  </defs>
  <sodipodi:namedview
     id="base"
     pagecolor="#ffffff"
     bordercolor="#666666"
     borderopacity="1.0"
     inkscape:pageopacity="0.0"
     inkscape:pageshadow="2"
     inkscape:zoom="0.9899495"
     inkscape:cx="231.84372"
     inkscape:cy="224.15696"
     inkscape:document-units="mm"
     inkscape:current-layer="layer1"
     showgrid="false"
     inkscape:window-width="1409"
     inkscape:window-height="1080"
     inkscape:window-x="2005"
     inkscape:window-y="237"
     inkscape:window-maximized="0" />
  <metadata
     id="metadata5">
    <rdf:RDF>
      <cc:Work
         rdf:about="">
        <dc:format>image/svg+xml</dc:format>
        <dc:type
           rdf:resource="http://purl.org/dc/dcmitype/StillImage" />
        <dc:title />
      </cc:Work>
    </rdf:RDF>
  </metadata>
  <g
     inkscape:label="Layer 1"
     inkscape:groupmode="layer"
     id="layer1"
     transform="translate(0,-147)">
    <path
       style="fill:#ffffff;fill-opacity:1;stroke:none;stroke-width:2.01355696;stroke-linecap:round;stroke-linejoin:round;stroke-miterlimit:4;stroke-dasharray:none;stroke-opacity:1"
       id="path836"
       sodipodi:type="arc"
       sodipodi:cx="75"
       sodipodi:cy="221.99989"
       sodipodi:rx="73.766388"
       sodipodi:ry="73.766388"
       sodipodi:start="4.714815"
       sodipodi:end="4.7099455"
       sodipodi:open="true"
       d="M 75.178959,148.23372 A 73.766388,73.766388 0 0 1 148.76633,222.08905 73.766388,73.766388 0 0 1 75.000644,295.76628 73.766388,73.766388 0 0 1 1.2336675,222.09034 73.766388,73.766388 0 0 1 74.819753,148.23373" />
    <path
       style="fill:#008000;stroke-width:0.60000002"
       d="M 64.876142,295.77275 C 45.738035,293.2891 27.166129,282.36926 15.460113,266.71731 7.8440453,256.53397 3.3547133,245.75062 1.4717423,233.11731 c -4.607252,-30.91118 9.9546217,-60.6699 37.1986377,-76.01934 8.354718,-4.7071 15.385098,-7.09871 25.2,-8.57258 45.10388,-6.77312 85.5,27.94955 85.5,73.49192 0,37.46548 -27.8904,69.13639 -64.979076,73.78691 -5.59206,0.70119 -13.9737,0.68767 -19.515162,-0.0315 z M 99.38147,262.23012 c 1.32804,-1.87712 2.07352,-2.38719 3.48891,-2.38719 1.41539,0 2.16087,0.51007 3.48891,2.38719 0.9289,1.31296 2.15854,2.38719 2.73253,2.38719 0.57399,0 2.31022,-0.80325 3.85828,-1.78501 l 2.81466,-1.785 -1.23125,-3.2908 c -1.45133,-3.87904 -0.9713,-5.44878 1.83188,-5.99042 0.99275,-0.19182 2.61499,-0.50522 3.60499,-0.69645 1.77322,-0.34249 1.8,-0.40402 1.8,-4.1358 0,-4.18558 0.0133,-4.17107 -4.43998,-4.83888 -3.81919,-0.57273 -4.38726,-1.76619 -2.82636,-5.93806 1.3664,-3.65202 1.34868,-3.68666 -3.22332,-6.29868 l -2.38965,-1.36523 -2.41035,2.76705 c -1.36203,1.5636 -2.93224,2.76704 -3.61034,2.76704 -0.67628,0 -2.24743,-1.2 -3.6,-2.74959 l -2.4,-2.74959 -2.899032,1.62341 c -1.594464,0.89288 -3.053478,2.02589 -3.242244,2.5178 -0.188766,0.49192 0.123336,2.19182 0.693558,3.77755 1.38312,3.84633 0.720654,5.0885 -3.0123,5.6483 -4.453296,0.66781 -4.439982,0.6533 -4.439982,4.83888 0,4.21158 -0.595458,3.67574 5.35854,4.82205 2.930358,0.56417 3.446082,1.71522 2.262102,5.0488 -1.44651,4.07275 -1.327554,4.56067 1.529358,6.27295 3.437448,2.06022 4.285074,1.94548 6.26109,-0.84751 z m -0.365052,-11.16614 c -3.920814,-3.29915 -1.327398,-10.08667 3.853962,-10.08667 5.06603,0 7.67811,6.52034 4.01717,10.02775 -2.2557,2.16109 -5.34536,2.18421 -7.871132,0.0589 z m -33.83145,1.40333 c 0.266976,-0.4125 0.755412,-2.36002 1.085412,-4.32782 0.555024,-3.30962 0.743016,-3.61881 2.50785,-4.12471 1.700376,-0.48741 2.196462,-0.31039 4.561794,1.62782 1.459674,1.19609 3.023874,2.17471 3.47601,2.17471 1.094934,0 8.354346,-7.23032 8.354346,-8.32087 0,-0.47055 -0.978618,-2.04981 -2.174706,-3.50949 -1.938216,-2.36533 -2.115234,-2.86141 -1.627824,-4.56179 0.509814,-1.77851 0.798084,-1.94852 4.252248,-2.50785 2.037948,-0.33 3.996606,-0.89464 4.352568,-1.25475 0.394104,-0.39869 0.578874,-2.74516 0.472464,-6 l -0.17475,-5.34525 -3.425604,-0.67645 c -4.813032,-0.95041 -5.11254,-1.12074 -5.56098,-3.16248 -0.330186,-1.50333 -0.02682,-2.30838 1.74342,-4.62682 1.178742,-1.54375 2.143164,-3.06136 2.143164,-3.37246 0,-0.91992 -7.3146,-8.26179 -8.2311,-8.26179 -0.462486,0 -2.07852,0.945 -3.591174,2.1 -2.91624,2.22671 -3.783252,2.46037 -5.57373,1.50214 -0.797622,-0.42687 -1.23651,-1.58517 -1.53459,-4.05 -0.229614,-1.89868 -0.687222,-3.78964 -1.01691,-4.20214 -0.398226,-0.49826 -2.380212,-0.75 -5.904853,-0.75 -6.072541,0 -6.201097,0.0992 -6.893401,5.31802 -0.409134,3.08421 -1.368689,4.28198 -3.430359,4.28198 -0.470253,0 -2.040503,-0.94238 -3.489444,-2.09418 -1.448942,-1.15179 -2.995308,-2.09679 -3.436371,-2.1 -1.009923,-0.007 -8.498068,7.1327 -8.498068,8.103 0,0.39524 0.945,1.95625 2.1,3.46891 3.368458,4.41153 2.678737,6.6694 -2.240261,7.33371 -5.214514,0.70422 -5.259739,0.76376 -5.259739,6.92452 0,6.09141 -0.0808,5.99211 5.54844,6.81879 4.60546,0.67634 5.283112,3.28133 1.945736,7.47969 -1.151797,1.44894 -2.094176,2.85656 -2.094176,3.12804 0,0.8984 7.320693,8.33752 8.204788,8.33752 0.476961,0 2.10483,-0.945 3.617488,-2.1 1.512658,-1.155 3.13421,-2.1 3.60345,-2.1 2.04098,0 3.10637,1.24252 3.473994,4.05156 0.722162,5.5181 0.759625,5.54844 6.852006,5.54844 3.643078,0 5.534014,-0.2419 5.862862,-0.75 z M 54.27038,232.88329 c -5.826212,-2.68898 -8.466694,-9.5549 -5.971363,-15.52706 2.095611,-5.0155 6.346405,-7.58855 11.947447,-7.2319 4.123734,0.26257 6.45027,1.56542 9.17529,5.13811 1.469784,1.92699 1.648626,2.66492 1.648626,6.80247 0,4.27357 -0.145266,4.82357 -1.834782,6.94671 -3.68151,4.62641 -9.864201,6.22593 -14.965218,3.87167 z m 48.6,-22.87574 c 0.68105,0 2.26022,1.2172 3.65162,2.81462 l 2.45162,2.81462 2.34838,-1.40869 c 4.55715,-2.73363 4.5446,-2.70859 3.18204,-6.35037 -1.5609,-4.17187 -0.99283,-5.36533 2.82636,-5.93806 4.45145,-0.66753 4.43998,-0.65508 4.43998,-4.82236 0,-4.16283 0.007,-4.15555 -4.40396,-4.81696 -3.61116,-0.54153 -4.47177,-1.55556 -3.46364,-4.08114 2.04835,-5.13155 2.05109,-5.11197 -0.9821,-7.03556 -1.53188,-0.97148 -3.20488,-1.75384 -3.71777,-1.73856 -0.51289,0.0153 -1.74253,1.08415 -2.73253,2.37526 -2.93159,3.82324 -4.36462,3.8188 -7.08891,-0.022 -0.928902,-1.30958 -2.0424,-2.38106 -2.47443,-2.38106 -0.432036,0 -2.034522,0.69808 -3.56109,1.5513 -3.071484,1.71668 -3.3279,2.56533 -1.846422,6.111 1.481136,3.54486 0.842466,4.70728 -2.855904,5.19788 -1.728786,0.22933 -3.487494,0.70267 -3.908244,1.05186 -1.078782,0.89531 -1.030206,7.4578 0.05826,7.8755 0.452808,0.17376 2.08032,0.50443 3.616692,0.73482 3.732954,0.55979 4.39542,1.80197 3.0123,5.6483 -0.570222,1.58573 -0.873252,3.30926 -0.673398,3.83007 0.199848,0.52081 1.658862,1.6232 3.242238,2.44976 l 2.878878,1.50284 2.4,-2.68155 c 1.32599,-1.48154 2.93701,-2.68154 3.6,-2.68154 z m -4.118184,-8.77206 c -2.27325,-2.27325 -2.200326,-5.69198 0.172032,-8.06433 2.298802,-2.2988 5.217282,-2.37383 7.800112,-0.20051 2.44453,2.05693 2.61618,5.84044 0.37469,8.25905 -2.08208,2.24659 -6.10324,2.24939 -8.346834,0.006 z"
       id="path858"
       inkscape:connector-curvature="0" />
  </g>
</svg>
