<?xml version="1.0" encoding="UTF-8" standalone="no"?>
<!-- Created with Inkscape (http://www.inkscape.org/) -->

<svg
   xmlns:dc="http://purl.org/dc/elements/1.1/"
   xmlns:cc="http://creativecommons.org/ns#"
   xmlns:rdf="http://www.w3.org/1999/02/22-rdf-syntax-ns#"
   xmlns:svg="http://www.w3.org/2000/svg"
   xmlns="http://www.w3.org/2000/svg"
   xmlns:sodipodi="http://sodipodi.sourceforge.net/DTD/sodipodi-0.dtd"
   xmlns:inkscape="http://www.inkscape.org/namespaces/inkscape"
   width="600"
   height="600"
   id="svg2"
   version="1.1"
   inkscape:version="0.92.4 (5da689c313, 2019-01-14)"
   sodipodi:docname="logoOnly.svg"
   inkscape:export-filename="C:\Users\Thomas\Documents\Work &amp; Career\TPH Design &amp; Consultancy\WebDev\Logos\Logo Development\Frugal-Logo-01.png"
   inkscape:export-xdpi="35.396385"
   inkscape:export-ydpi="35.396385">
  <defs
     id="defs4" />
  <sodipodi:namedview
     id="base"
     pagecolor="#ffffff"
     bordercolor="#666666"
     borderopacity="1.0"
     inkscape:pageopacity="0.0"
     inkscape:pageshadow="2"
     inkscape:zoom="1.1340097"
     inkscape:cx="285.90873"
     inkscape:cy="291.444"
     inkscape:document-units="px"
     inkscape:current-layer="layer1"
     showgrid="false"
     inkscape:window-width="1568"
     inkscape:window-height="1095"
     inkscape:window-x="96"
     inkscape:window-y="219"
     inkscape:window-maximized="0"
     units="mm" />
  <metadata
     id="metadata7">
    <rdf:RDF>
      <cc:Work
         rdf:about="">
        <dc:format>image/svg+xml</dc:format>
        <dc:type
           rdf:resource="http://purl.org/dc/dcmitype/StillImage" />
        <dc:title></dc:title>
      </cc:Work>
    </rdf:RDF>
  </metadata>
  <g
     inkscape:groupmode="layer"
     id="layer2"
     inkscape:label="Bottom"
     transform="translate(-0.99999995,-143.09446)" />
  <g
     inkscape:label="Layer 1"
     inkscape:groupmode="layer"
     id="layer1"
     transform="translate(-0.99999995,-451.36215)">
    <path
       style="fill:#b4cd37;fill-opacity:1;fill-rule:evenodd;stroke:none;stroke-width:2.50906682"
       d="m 218.43995,609.6092 c -78.29148,2e-4 -141.752585,63.46131 -141.752618,141.75298 1.37e-4,78.2918 63.461208,141.75288 141.752878,141.75288 30.73265,1.7e-4 59.1954,-9.81011 82.41735,-26.42716 -35.55272,-25.75737 -58.70815,-67.60638 -58.70814,-114.86582 -1.7e-4,-47.55901 23.4407,-89.65242 59.37711,-115.36743 -23.34158,-16.9046 -52.06258,-26.84531 -83.08658,-26.84545 z"
       id="path2985"
       inkscape:connector-curvature="0" />
    <path
       inkscape:connector-curvature="0"
       style="fill:#a4d5da;fill-opacity:1;fill-rule:evenodd;stroke:none;stroke-width:2.50906682"
       d="m 383.55965,893.1151 c 78.2919,-1.8e-4 141.75299,-63.46127 141.75302,-141.75301 -1.6e-4,-78.29179 -63.46099,-141.75262 -141.75282,-141.75282 -30.7325,4e-5 -59.1953,9.81027 -82.41728,26.42729 35.55282,25.75747 58.70818,67.60643 58.70804,114.86572 7e-5,47.55896 -23.44055,89.65259 -59.37732,115.36761 23.34175,16.90477 52.06282,26.84517 83.08636,26.84521 z"
       id="path2985-9" />
    <flowRoot
       xml:space="preserve"
       id="flowRoot2997"
       style="font-style:normal;font-weight:normal;line-height:0.01%;font-family:sans-serif;letter-spacing:0px;word-spacing:0px;fill:#000000;fill-opacity:1;stroke:none"
       transform="rotate(-45,1128.2952,254.61207)"><flowRegion
         id="flowRegion2999"
         style="font-family:sans-serif"><rect
           id="rect3001"
           width="257.62653"
           height="356.93506"
           x="-60.448681"
           y="-98.494759"
           style="font-family:sans-serif" /></flowRegion><flowPara
         id="flowPara3003"
         style="font-size:40px;line-height:1.25;font-family:sans-serif"> </flowPara></flowRoot>  </g>
</svg>
